ply
format ascii 1.0
comment VCGLIB generated
element vertex 476
property float x
property float y
property float z
property float nx
property float ny
property float nz
property uchar red
property uchar green
property uchar blue
property uchar alpha
element face 244
property list uchar int vertex_indices
end_header
0.4399999 0.842424 0.3333333 1 0 0 150 150 150 255 
0.4399999 0.842424 0.3999999 1 0 0 150 150 150 255 
0.4399999 0.02546246 0.3999999 1 0 0 150 150 150 255 
0.4399999 0.02546246 0.3333333 1 0 0 150 150 150 255 
0.4399999 0.9224241 0.3333338 0 1 -4.371139e-08 150 150 150 255 
0.3599999 0.9224241 0.3333332 0 1 -4.371139e-08 150 150 150 255 
0.3599999 0.9224241 0.3999999 0 1 -4.371139e-08 150 150 150 255 
0.4399999 0.9224241 0.4000002 0 1 -4.371139e-08 150 150 150 255 
0.4399999 0.842424 0.3333333 1 -9.934104e-08 1.192094e-08 150 150 150 255 
0.4399999 0.9224241 0.3333338 1 -1.986821e-07 2.384187e-08 150 150 150 255 
0.4399999 0.9224241 0.4000002 1 0 0 150 150 150 255 
0.4399999 0.842424 0.3999999 1 0 0 150 150 150 255 
0.4399999 0.842424 0.3999999 -1.490116e-06 -1.446403e-06 1 150 150 150 255 
0.4399999 0.9224241 0.4000002 -1.490116e-06 -1.446403e-06 1 150 150 150 255 
0.3599999 0.9224241 0.3999999 -1.490116e-06 -1.446403e-06 1 150 150 150 255 
0.3599999 0.842424 0.3999999 -1.490116e-06 -1.446403e-06 1 150 150 150 255 
0.3599999 0.842424 0.333333 0 -1 4.371139e-08 150 150 150 255 
0.3599999 0.842424 0.3999999 0 -1 4.371139e-08 150 150 150 255 
-0.3599999 0.842424 0.3999999 0 -1 4.371139e-08 150 150 150 255 
-0.3599999 0.842424 0.333333 0 -1 4.371139e-08 150 150 150 255 
0.4399999 0.9224241 -0.3999998 2.83122e-06 2.787505e-06 -1 150 150 150 255 
0.4399999 0.842424 -0.4 2.83122e-06 2.787505e-06 -1 150 150 150 255 
0.3599999 0.842424 -0.4000002 2.83122e-06 2.787505e-06 -1 150 150 150 255 
0.3599999 0.9224241 -0.4 2.83122e-06 2.787505e-06 -1 150 150 150 255 
0.3599999 0.842424 0.333333 2.682209e-06 -4.371131e-08 -1 150 150 150 255 
0.4399999 0.842424 0.3333333 2.682209e-06 -4.371131e-08 -1 150 150 150 255 
0.4399999 0.02546246 0.3333333 2.682209e-06 -4.371131e-08 -1 150 150 150 255 
0.3599999 0.02546246 0.3333331 2.682209e-06 -4.371131e-08 -1 150 150 150 255 
0.4399999 0.842424 -0.3333333 0 -1 4.371139e-08 150 150 150 255 
0.4399999 0.842424 0.3333333 0 -1 4.371139e-08 150 150 150 255 
0.3599999 0.842424 0.333333 0 -1 4.371139e-08 150 150 150 255 
0.3599999 0.842424 -0.3333338 0 -1 4.371139e-08 150 150 150 255 
0.4399999 0.9224241 -0.3999998 0 1 -4.371139e-08 150 150 150 255 
0.3599999 0.9224241 -0.4 0 1 -4.371139e-08 150 150 150 255 
0.3599999 0.9224241 -0.3333334 0 1 -4.371139e-08 150 150 150 255 
0.4399999 0.9224241 -0.3333328 0 1 -4.371139e-08 150 150 150 255 
0.4399999 0.9224241 -0.3333328 0 1 -4.371139e-08 150 150 150 255 
0.3599999 0.9224241 -0.3333334 0 1 -4.371139e-08 150 150 150 255 
0.4399999 0.842424 -0.4 1 -5.960458e-07 2.605398e-14 150 150 150 255 
0.4399999 0.9224241 -0.3999998 1 -5.960458e-07 2.605398e-14 150 150 150 255 
0.4399999 0.9224241 -0.3333328 1 -5.960458e-07 2.605398e-14 150 150 150 255 
0.4399999 0.842424 -0.3333333 1 -5.960458e-07 2.605398e-14 150 150 150 255 
0.4399999 0.842424 -0.3333333 1 -2.980231e-07 3.576281e-08 150 150 150 255 
0.4399999 0.9224241 -0.3333328 1 -2.980231e-07 3.576281e-08 150 150 150 255 
0.3599999 0.9224241 -0.4 0 2.936517e-06 -1 150 150 150 255 
0.3599999 0.842424 -0.4000002 0 2.936517e-06 -1 150 150 150 255 
-0.3599999 0.842424 -0.4000002 0 2.936517e-06 -1 150 150 150 255 
-0.3599999 0.9224241 -0.4 0 2.936517e-06 -1 150 150 150 255 
0.3599999 0.842424 0.333333 -1 0 -0 150 150 150 255 
0.3599999 0.9224241 0.3333332 -1 0 -0 150 150 150 255 
0.3599999 0.9224241 -0.3333334 -1 0 -0 150 150 150 255 
0.3599999 0.842424 -0.3333338 -1 0 -0 150 150 150 255 
-0.3599999 0.9224241 0.3999999 -2.384185e-06 1 -4.371139e-08 150 150 150 255 
-0.3599999 0.9224241 0.3333332 -2.384185e-06 1 -4.371139e-08 150 150 150 255 
-0.4399999 0.922424 0.3333332 -2.384185e-06 1 -4.371139e-08 150 150 150 255 
-0.4399999 0.922424 0.3999999 -2.384185e-06 1 -4.371139e-08 150 150 150 255 
-0.3599999 0.9224241 -0.3333334 -2.384185e-06 1 -4.371139e-08 150 150 150 255 
-0.3599999 0.9224241 -0.4 -2.384185e-06 1 -4.371139e-08 150 150 150 255 
-0.4399999 0.922424 -0.4 -2.384185e-06 1 -4.371139e-08 150 150 150 255 
-0.4399999 0.922424 -0.3333334 -2.384185e-06 1 -4.371139e-08 150 150 150 255 
0.3599999 0.9224241 0.3333332 0 2.340471e-06 -1 150 150 150 255 
0.3599999 0.842424 0.333333 0 2.340471e-06 -1 150 150 150 255 
-0.3599999 0.842424 0.333333 0 2.340471e-06 -1 150 150 150 255 
-0.3599999 0.9224241 0.3333332 0 2.340471e-06 -1 150 150 150 255 
-0.3599999 0.9224241 -0.4 0 1 -4.371139e-08 150 150 150 255 
-0.3599999 0.9224241 -0.3333334 0 1 -4.371139e-08 150 150 150 255 
0.3599999 0.842424 0.3999999 0 4.371139e-08 1 150 150 150 255 
0.3599999 0.9224241 0.3999999 0 4.371139e-08 1 150 150 150 255 
-0.3599999 0.9224241 0.3999999 0 4.371139e-08 1 150 150 150 255 
-0.3599999 0.842424 0.3999999 0 4.371139e-08 1 150 150 150 255 
0.3599999 0.9224241 0.3999999 0 1 -4.371139e-08 150 150 150 255 
0.3599999 0.9224241 0.3333332 0 1 -4.371139e-08 150 150 150 255 
-0.3599999 0.9224241 0.3333332 0 1 -4.371139e-08 150 150 150 255 
-0.3599999 0.9224241 0.3999999 0 1 -4.371139e-08 150 150 150 255 
0.3599999 0.842424 -0.3333338 0 -4.724654e-06 1 150 150 150 255 
0.3599999 0.9224241 -0.3333334 0 -4.724654e-06 1 150 150 150 255 
-0.3599999 0.9224241 -0.3333334 0 -4.724654e-06 1 150 150 150 255 
-0.3599999 0.842424 -0.3333338 0 -4.724654e-06 1 150 150 150 255 
0.3599999 0.842424 -0.4000002 0 -1 4.371139e-08 150 150 150 255 
0.3599999 0.842424 -0.3333338 0 -1 4.371139e-08 150 150 150 255 
-0.3599999 0.842424 -0.3333338 0 -1 4.371139e-08 150 150 150 255 
-0.3599999 0.842424 -0.4000002 0 -1 4.371139e-08 150 150 150 255 
-0.4399999 0.842424 -0.3333338 -1 -1.490112e-07 -1.788143e-07 150 150 150 255 
-0.4399999 0.922424 -0.3333334 -1 -1.490112e-07 -1.788143e-07 150 150 150 255 
-0.4399999 0.922424 -0.4 -1 -2.980223e-07 -3.576286e-07 150 150 150 255 
-0.4399999 0.842424 -0.4000002 -1 -2.980223e-07 -3.576286e-07 150 150 150 255 
-0.4399999 0.842424 0.3999999 -1 0 -0 150 150 150 255 
-0.4399999 0.922424 0.3999999 -1 0 -0 150 150 150 255 
-0.4399999 0.922424 0.3333332 -1 0 -0 150 150 150 255 
-0.4399999 0.842424 0.333333 -1 0 -0 150 150 150 255 
-0.3599999 0.842424 0.3999999 0 4.371139e-08 1 150 150 150 255 
-0.4399999 0.842424 0.3999999 0 4.371139e-08 1 150 150 150 255 
-0.4399999 0.02546242 0.3999999 0 4.371139e-08 1 150 150 150 255 
-0.3599999 0.02546246 0.3999999 0 4.371139e-08 1 150 150 150 255 
-0.3599999 0.9224241 -0.4 2.9802e-07 2.638497e-06 -1 150 150 150 255 
-0.3599999 0.842424 -0.4000002 2.9802e-07 2.638497e-06 -1 150 150 150 255 
-0.4399999 0.842424 -0.4000002 2.9802e-07 2.638497e-06 -1 150 150 150 255 
-0.4399999 0.922424 -0.4 2.9802e-07 2.638497e-06 -1 150 150 150 255 
0.3599999 0.842424 -0.3333338 -1 -5.83672e-08 -7.152581e-07 150 150 150 255 
0.3599999 0.842424 -0.4000002 -1 -5.83672e-08 -7.152581e-07 150 150 150 255 
0.36 0.02546243 -0.4000002 -1 -5.83672e-08 -7.152581e-07 150 150 150 255 
0.3599999 0.02546243 -0.3333337 -1 -5.83672e-08 -7.152581e-07 150 150 150 255 
-0.4399999 0.922424 0.3999999 0 4.371139e-08 1 150 150 150 255 
-0.4399999 0.842424 0.3999999 0 4.371139e-08 1 150 150 150 255 
-0.3599999 0.842424 -0.3333338 0 -1 4.371139e-08 150 150 150 255 
-0.3599999 0.842424 0.333333 0 -1 4.371139e-08 150 150 150 255 
-0.4399999 0.842424 0.333333 0 -1 4.371139e-08 150 150 150 255 
-0.4399999 0.842424 -0.3333338 0 -1 4.371139e-08 150 150 150 255 
-0.3599999 0.9224241 -0.3333334 1 0 0 150 150 150 255 
-0.3599999 0.9224241 0.3333332 1 0 0 150 150 150 255 
-0.3599999 0.842424 0.333333 1 0 0 150 150 150 255 
-0.3599999 0.842424 -0.3333338 1 0 0 150 150 150 255 
-0.4399999 0.922424 0.3333332 -2.384185e-06 1 -4.371139e-08 150 150 150 255 
-0.3599999 0.9224241 0.3333332 -2.384185e-06 1 -4.371139e-08 150 150 150 255 
-0.4399999 0.922424 0.3333332 -1 0 -0 150 150 150 255 
-0.4399999 0.842424 0.333333 -1 0 -0 150 150 150 255 
-0.3599999 0.842424 0.333333 1 5.836716e-08 -2.55131e-15 150 150 150 255 
-0.3599999 0.842424 0.3999999 1 5.836716e-08 -2.55131e-15 150 150 150 255 
-0.3599999 0.02546246 0.3999999 1 5.836716e-08 -2.55131e-15 150 150 150 255 
-0.3599999 0.02546246 0.3333331 1 5.836716e-08 -2.55131e-15 150 150 150 255 
-0.4399999 0.842424 0.3999999 -1 0 -0 150 150 150 255 
-0.4399999 0.842424 0.333333 -1 0 -0 150 150 150 255 
-0.4399999 0.02546241 0.333333 -1 0 -0 150 150 150 255 
-0.4399999 0.02546242 0.3999999 -1 0 -0 150 150 150 255 
-0.4399999 0.842424 0.333333 5.960462e-07 -4.371137e-08 -1 150 150 150 255 
-0.3599999 0.842424 0.333333 5.960462e-07 -4.371137e-08 -1 150 150 150 255 
-0.3599999 0.02546246 0.3333331 5.960462e-07 -4.371137e-08 -1 150 150 150 255 
-0.4399999 0.02546241 0.333333 5.960462e-07 -4.371137e-08 -1 150 150 150 255 
0.3599999 0.842424 -0.4000002 2.980235e-06 -4.37113e-08 -1 150 150 150 255 
0.4399999 0.842424 -0.4 2.980235e-06 -4.37113e-08 -1 150 150 150 255 
0.4399999 0.02546243 -0.3999999 2.980235e-06 -4.37113e-08 -1 150 150 150 255 
0.36 0.02546243 -0.4000002 2.980235e-06 -4.37113e-08 -1 150 150 150 255 
0.4399999 0.842424 -0.4 1 0 0 150 150 150 255 
0.4399999 0.842424 -0.3333333 1 0 0 150 150 150 255 
0.4399999 0.02546243 -0.3333333 1 0 0 150 150 150 255 
0.4399999 0.02546243 -0.3999999 1 0 0 150 150 150 255 
-0.3599999 0.842424 -0.4000002 1 4.37754e-08 5.364436e-07 150 150 150 255 
-0.3599999 0.842424 -0.3333338 1 4.37754e-08 5.364436e-07 150 150 150 255 
-0.3599999 0.02546243 -0.3333337 1 4.37754e-08 5.364436e-07 150 150 150 255 
-0.3599999 0.02546243 -0.4000002 1 4.37754e-08 5.364436e-07 150 150 150 255 
-0.4399999 0.842424 -0.3333338 -1 -3.126494e-14 -7.152584e-07 150 150 150 255 
-0.4399999 0.842424 -0.4000002 -1 -3.126494e-14 -7.152584e-07 150 150 150 255 
-0.4399999 0.02546238 -0.4000002 -1 -3.126494e-14 -7.152584e-07 150 150 150 255 
-0.4399999 0.02546238 -0.3333338 -1 -3.126494e-14 -7.152584e-07 150 150 150 255 
0.4399999 0.842424 0.3999999 0 4.371139e-08 1 150 150 150 255 
0.3599999 0.842424 0.3999999 0 4.371139e-08 1 150 150 150 255 
0.3599999 0.02546246 0.3999999 0 4.371139e-08 1 150 150 150 255 
0.4399999 0.02546246 0.3999999 0 4.371139e-08 1 150 150 150 255 
-0.3599999 0.842424 -0.3333338 -2.980231e-07 4.371138e-08 1 150 150 150 255 
-0.4399999 0.842424 -0.3333338 -2.980231e-07 4.371138e-08 1 150 150 150 255 
-0.4399999 0.02546238 -0.3333338 -2.980231e-07 4.371138e-08 1 150 150 150 255 
-0.3599999 0.02546243 -0.3333337 -2.980231e-07 4.371138e-08 1 150 150 150 255 
0.3599999 0.842424 0.3999999 -1 -5.836716e-08 2.55131e-15 150 150 150 255 
0.3599999 0.842424 0.333333 -1 -5.836716e-08 2.55131e-15 150 150 150 255 
0.3599999 0.02546246 0.3333331 -1 -5.836716e-08 2.55131e-15 150 150 150 255 
0.3599999 0.02546246 0.3999999 -1 -5.836716e-08 2.55131e-15 150 150 150 255 
-0.4399999 0.842424 -0.4000002 0 -4.371139e-08 -1 150 150 150 255 
-0.3599999 0.842424 -0.4000002 0 -4.371139e-08 -1 150 150 150 255 
-0.3599999 0.02546243 -0.4000002 0 -4.371139e-08 -1 150 150 150 255 
-0.4399999 0.02546238 -0.4000002 0 -4.371139e-08 -1 150 150 150 255 
0.4399999 0.842424 -0.3333333 -5.662442e-06 4.371123e-08 1 150 150 150 255 
0.3599999 0.842424 -0.3333338 -5.662442e-06 4.371123e-08 1 150 150 150 255 
0.3599999 0.02546243 -0.3333337 -5.662442e-06 4.371123e-08 1 150 150 150 255 
0.4399999 0.02546243 -0.3333333 -5.662442e-06 4.371123e-08 1 150 150 150 255 
-0.4893857 0.04000003 0.4448962 -1 0 -0 150 150 150 255 
-0.4893857 0.03999999 -0.4448962 -1 0 -0 150 150 150 255 
-0.4893857 -0.04000003 -0.4448962 -1 0 -0 150 150 150 255 
-0.4893857 -0.03999999 0.4448962 -1 0 -0 150 150 150 255 
-0.4893857 0.03999999 -0.4448962 0 -4.371139e-08 -1 150 150 150 255 
0.4893857 0.03999999 -0.4448962 0 -4.371139e-08 -1 150 150 150 255 
0.4893857 -0.04000003 -0.4448962 0 -4.371139e-08 -1 150 150 150 255 
-0.4893857 -0.04000003 -0.4448962 0 -4.371139e-08 -1 150 150 150 255 
0.4893857 0.03999999 -0.4448962 1 0 0 150 150 150 255 
0.4893857 0.04000003 0.4448962 1 0 0 150 150 150 255 
0.4893857 -0.03999999 0.4448962 1 0 0 150 150 150 255 
0.4893857 -0.04000003 -0.4448962 1 0 0 150 150 150 255 
0.4893857 0.04000003 0.4448962 0 4.371139e-08 1 150 150 150 255 
-0.4893857 0.04000003 0.4448962 0 4.371139e-08 1 150 150 150 255 
-0.4893857 -0.03999999 0.4448962 0 4.371139e-08 1 150 150 150 255 
0.4893857 -0.03999999 0.4448962 0 4.371139e-08 1 150 150 150 255 
-0.4893857 -0.03999999 0.4448962 0 -1 4.371139e-08 150 150 150 255 
-0.4893857 -0.04000003 -0.4448962 0 -1 4.371139e-08 150 150 150 255 
0.4893857 -0.04000003 -0.4448962 0 -1 4.371139e-08 150 150 150 255 
0.4893857 -0.03999999 0.4448962 0 -1 4.371139e-08 150 150 150 255 
0.4893857 0.04000003 0.4448962 0 1 -4.371139e-08 150 150 150 255 
0.4893857 0.03999999 -0.4448962 0 1 -4.371139e-08 150 150 150 255 
-0.4893857 0.03999999 -0.4448962 0 1 -4.371139e-08 150 150 150 255 
-0.4893857 0.04000003 0.4448962 0 1 -4.371139e-08 150 150 150 255 
-0.3655463 0.8936725 -0.2566534 5.663143e-08 -0.8660258 -0.4999993 150 150 150 255 
0.3655463 0.8936725 -0.2566534 5.663143e-08 -0.8660258 -0.4999993 150 150 150 255 
0.3655463 0.876352 -0.2266534 5.663143e-08 -0.8660258 -0.4999993 150 150 150 255 
-0.3655463 0.876352 -0.2266534 5.663143e-08 -0.8660258 -0.4999993 150 150 150 255 
-0.3655463 0.876352 -0.2266534 -8.977955e-14 7.319672e-07 1 150 150 150 255 
0.3655463 0.876352 -0.2266534 -8.977955e-14 7.319672e-07 1 150 150 150 255 
0.3655463 0.910993 -0.2266534 -8.977955e-14 7.319672e-07 1 150 150 150 255 
-0.3655463 0.9109929 -0.2266534 -8.977955e-14 7.319672e-07 1 150 150 150 255 
-0.3655463 0.9109929 -0.2266534 -5.648436e-08 0.8660256 -0.4999997 150 150 150 255 
0.3655463 0.910993 -0.2266534 -5.648436e-08 0.8660256 -0.4999997 150 150 150 255 
0.3655463 0.8936725 -0.2566534 -5.648436e-08 0.8660256 -0.4999997 150 150 150 255 
-0.3655463 0.8936725 -0.2566534 -5.648436e-08 0.8660256 -0.4999997 150 150 150 255 
-0.3655463 0.8936725 -0.106218 5.663143e-08 -0.8660258 -0.4999993 150 150 150 255 
0.3655463 0.8936725 -0.106218 5.663143e-08 -0.8660258 -0.4999993 150 150 150 255 
0.3655463 0.876352 -0.07621793 5.663143e-08 -0.8660258 -0.4999993 150 150 150 255 
-0.3655463 0.876352 -0.07621793 5.663143e-08 -0.8660258 -0.4999993 150 150 150 255 
-0.3655463 0.876352 -0.07621793 -8.977955e-14 7.319672e-07 1 150 150 150 255 
0.3655463 0.876352 -0.07621793 -8.977955e-14 7.319672e-07 1 150 150 150 255 
0.3655463 0.910993 -0.07621795 -8.977955e-14 7.319672e-07 1 150 150 150 255 
-0.3655463 0.9109929 -0.07621795 -8.977955e-14 7.319672e-07 1 150 150 150 255 
-0.3655463 0.9109929 -0.07621795 -5.648436e-08 0.8660256 -0.4999997 150 150 150 255 
0.3655463 0.910993 -0.07621795 -5.648436e-08 0.8660256 -0.4999997 150 150 150 255 
0.3655463 0.8936725 -0.106218 -5.648436e-08 0.8660256 -0.4999997 150 150 150 255 
-0.3655463 0.8936725 -0.106218 -5.648436e-08 0.8660256 -0.4999997 150 150 150 255 
-0.3655463 0.8936725 0.2566533 5.663143e-08 -0.8660258 0.4999994 150 150 150 255 
-0.3655463 0.876352 0.2266533 5.663143e-08 -0.8660258 0.4999994 150 150 150 255 
0.3655463 0.876352 0.2266533 5.663143e-08 -0.8660258 0.4999994 150 150 150 255 
0.3655463 0.8936725 0.2566533 5.663143e-08 -0.8660258 0.4999994 150 150 150 255 
-0.3655463 0.876352 0.2266533 -8.977955e-14 6.445445e-07 -1 150 150 150 255 
-0.3655463 0.9109929 0.2266533 -8.977955e-14 6.445445e-07 -1 150 150 150 255 
0.3655463 0.910993 0.2266533 -8.977955e-14 6.445445e-07 -1 150 150 150 255 
0.3655463 0.876352 0.2266533 -8.977955e-14 6.445445e-07 -1 150 150 150 255 
-0.3655463 0.9109929 0.2266533 -5.648436e-08 0.8660256 0.4999996 150 150 150 255 
-0.3655463 0.8936725 0.2566533 -5.648436e-08 0.8660256 0.4999996 150 150 150 255 
0.3655463 0.8936725 0.2566533 -5.648436e-08 0.8660256 0.4999996 150 150 150 255 
0.3655463 0.910993 0.2266533 -5.648436e-08 0.8660256 0.4999996 150 150 150 255 
-0.3655463 0.8936725 0.1062179 5.663143e-08 -0.8660258 0.4999994 150 150 150 255 
-0.3655463 0.876352 0.07621785 5.663143e-08 -0.8660258 0.4999994 150 150 150 255 
0.3655463 0.876352 0.07621785 5.663143e-08 -0.8660258 0.4999994 150 150 150 255 
0.3655463 0.8936725 0.1062179 5.663143e-08 -0.8660258 0.4999994 150 150 150 255 
-0.3655463 0.876352 0.07621785 -8.977955e-14 6.445445e-07 -1 150 150 150 255 
-0.3655463 0.9109929 0.07621787 -8.977955e-14 6.445445e-07 -1 150 150 150 255 
0.3655463 0.910993 0.07621787 -8.977955e-14 6.445445e-07 -1 150 150 150 255 
0.3655463 0.876352 0.07621785 -8.977955e-14 6.445445e-07 -1 150 150 150 255 
-0.3655463 0.9109929 0.07621787 -5.648436e-08 0.8660256 0.4999996 150 150 150 255 
-0.3655463 0.8936725 0.1062179 -5.648436e-08 0.8660256 0.4999996 150 150 150 255 
0.3655463 0.8936725 0.1062179 -5.648436e-08 0.8660256 0.4999996 150 150 150 255 
0.3655463 0.910993 0.07621787 -5.648436e-08 0.8660256 0.4999996 150 150 150 255 
-0.3820834 0.02873944 -0.2498751 0.8660251 -2.185572e-08 -0.5000005 150 150 150 255 
-0.3820834 0.8511071 -0.2498751 0.8660251 -2.185572e-08 -0.5000005 150 150 150 255 
-0.3653164 0.8511071 -0.2208336 0.8660251 -2.185572e-08 -0.5000005 150 150 150 255 
-0.3653164 0.02873944 -0.2208336 0.8660251 -2.185572e-08 -0.5000005 150 150 150 255 
-0.3653164 0.02873944 -0.2208336 0 4.371139e-08 1 150 150 150 255 
-0.3653164 0.8511071 -0.2208336 0 4.371139e-08 1 150 150 150 255 
-0.3988505 0.8511071 -0.2208336 0 4.371139e-08 1 150 150 150 255 
-0.3988505 0.02873944 -0.2208336 0 4.371139e-08 1 150 150 150 255 
-0.3988505 0.02873944 -0.2208336 -0.8660254 -2.185569e-08 -0.4999999 150 150 150 255 
-0.3988505 0.8511071 -0.2208336 -0.8660254 -2.185569e-08 -0.4999999 150 150 150 255 
-0.3820834 0.8511071 -0.2498751 -0.8660254 -2.185569e-08 -0.4999999 150 150 150 255 
-0.3820834 0.02873944 -0.2498751 -0.8660254 -2.185569e-08 -0.4999999 150 150 150 255 
-0.3820834 0.02873945 -0.1454384 0.8660251 -2.185572e-08 -0.5000005 150 150 150 255 
-0.3820834 0.8511071 -0.1454384 0.8660251 -2.185572e-08 -0.5000005 150 150 150 255 
-0.3653164 0.8511071 -0.116397 0.8660251 -2.185572e-08 -0.5000005 150 150 150 255 
-0.3653164 0.02873945 -0.116397 0.8660251 -2.185572e-08 -0.5000005 150 150 150 255 
-0.3653164 0.02873945 -0.116397 0 4.371139e-08 1 150 150 150 255 
-0.3653164 0.8511071 -0.116397 0 4.371139e-08 1 150 150 150 255 
-0.3988505 0.8511071 -0.116397 0 4.371139e-08 1 150 150 150 255 
-0.3988505 0.02873945 -0.116397 0 4.371139e-08 1 150 150 150 255 
-0.3988505 0.02873945 -0.116397 -0.8660254 -2.185569e-08 -0.4999999 150 150 150 255 
-0.3988505 0.8511071 -0.116397 -0.8660254 -2.185569e-08 -0.4999999 150 150 150 255 
-0.3820834 0.8511071 -0.1454384 -0.8660254 -2.185569e-08 -0.4999999 150 150 150 255 
-0.3820834 0.02873945 -0.1454384 -0.8660254 -2.185569e-08 -0.4999999 150 150 150 255 
-0.3820834 0.02873945 -0.06073073 0.8660251 -2.185572e-08 -0.5000005 150 150 150 255 
-0.3820834 0.8511071 -0.06073077 0.8660251 -2.185572e-08 -0.5000005 150 150 150 255 
-0.3653164 0.8511071 -0.03168934 0.8660251 -2.185572e-08 -0.5000005 150 150 150 255 
-0.3653164 0.02873945 -0.0316893 0.8660251 -2.185572e-08 -0.5000005 150 150 150 255 
-0.3653164 0.02873945 -0.0316893 0 4.371139e-08 1 150 150 150 255 
-0.3653164 0.8511071 -0.03168934 0 4.371139e-08 1 150 150 150 255 
-0.3988505 0.8511071 -0.03168934 0 4.371139e-08 1 150 150 150 255 
-0.3988505 0.02873945 -0.0316893 0 4.371139e-08 1 150 150 150 255 
-0.3988505 0.02873945 -0.0316893 -0.8660254 -2.18557e-08 -0.5 150 150 150 255 
-0.3988505 0.8511071 -0.03168934 -0.8660254 -2.18557e-08 -0.5 150 150 150 255 
-0.3820834 0.8511071 -0.06073077 -0.8660254 -2.18557e-08 -0.5 150 150 150 255 
-0.3820834 0.02873945 -0.06073073 -0.8660254 -2.18557e-08 -0.5 150 150 150 255 
-0.2601061 0.02873944 -0.3937672 0.8660251 -2.185572e-08 -0.5000005 150 150 150 255 
-0.2601061 0.8511071 -0.3937672 0.8660251 -2.185572e-08 -0.5000005 150 150 150 255 
-0.243339 0.8511071 -0.3647258 0.8660251 -2.185572e-08 -0.5000005 150 150 150 255 
-0.243339 0.02873944 -0.3647258 0.8660251 -2.185572e-08 -0.5000005 150 150 150 255 
-0.243339 0.02873944 -0.3647258 0 4.371139e-08 1 150 150 150 255 
-0.243339 0.8511071 -0.3647258 0 4.371139e-08 1 150 150 150 255 
-0.2768731 0.8511071 -0.3647258 0 4.371139e-08 1 150 150 150 255 
-0.2768731 0.02873944 -0.3647258 0 4.371139e-08 1 150 150 150 255 
-0.2768731 0.02873944 -0.3647258 -0.8660254 -2.185569e-08 -0.4999999 150 150 150 255 
-0.2768731 0.8511071 -0.3647258 -0.8660254 -2.185569e-08 -0.4999999 150 150 150 255 
-0.2601061 0.8511071 -0.3937672 -0.8660254 -2.185569e-08 -0.4999999 150 150 150 255 
-0.2601061 0.02873944 -0.3937672 -0.8660254 -2.185569e-08 -0.4999999 150 150 150 255 
0.3820834 0.02873944 -0.2498751 -0.8660251 -2.185572e-08 -0.5000005 150 150 150 255 
0.3653164 0.02873944 -0.2208336 -0.8660251 -2.185572e-08 -0.5000005 150 150 150 255 
0.3653164 0.8511071 -0.2208336 -0.8660251 -2.185572e-08 -0.5000005 150 150 150 255 
0.3820834 0.8511071 -0.2498751 -0.8660251 -2.185572e-08 -0.5000005 150 150 150 255 
0.3653164 0.02873944 -0.2208336 0 4.371139e-08 1 150 150 150 255 
0.3988505 0.02873944 -0.2208336 0 4.371139e-08 1 150 150 150 255 
0.3988505 0.8511071 -0.2208336 0 4.371139e-08 1 150 150 150 255 
0.3653164 0.8511071 -0.2208336 0 4.371139e-08 1 150 150 150 255 
0.3988505 0.02873944 -0.2208336 0.8660254 -2.185569e-08 -0.4999999 150 150 150 255 
0.3820834 0.02873944 -0.2498751 0.8660254 -2.185569e-08 -0.4999999 150 150 150 255 
0.3820834 0.8511071 -0.2498751 0.8660254 -2.185569e-08 -0.4999999 150 150 150 255 
0.3988505 0.8511071 -0.2208336 0.8660254 -2.185569e-08 -0.4999999 150 150 150 255 
0.3820834 0.02873945 -0.1454384 -0.8660251 -2.185572e-08 -0.5000005 150 150 150 255 
0.3653164 0.02873945 -0.116397 -0.8660251 -2.185572e-08 -0.5000005 150 150 150 255 
0.3653164 0.8511071 -0.116397 -0.8660251 -2.185572e-08 -0.5000005 150 150 150 255 
0.3820834 0.8511071 -0.1454384 -0.8660251 -2.185572e-08 -0.5000005 150 150 150 255 
0.3653164 0.02873945 -0.116397 0 4.371139e-08 1 150 150 150 255 
0.3988505 0.02873945 -0.116397 0 4.371139e-08 1 150 150 150 255 
0.3988505 0.8511071 -0.116397 0 4.371139e-08 1 150 150 150 255 
0.3653164 0.8511071 -0.116397 0 4.371139e-08 1 150 150 150 255 
0.3988505 0.02873945 -0.116397 0.8660254 -2.185569e-08 -0.4999999 150 150 150 255 
0.3820834 0.02873945 -0.1454384 0.8660254 -2.185569e-08 -0.4999999 150 150 150 255 
0.3820834 0.8511071 -0.1454384 0.8660254 -2.185569e-08 -0.4999999 150 150 150 255 
0.3988505 0.8511071 -0.116397 0.8660254 -2.185569e-08 -0.4999999 150 150 150 255 
0.3820834 0.02873945 -0.06073073 -0.8660251 -2.185572e-08 -0.5000005 150 150 150 255 
0.3653164 0.02873945 -0.0316893 -0.8660251 -2.185572e-08 -0.5000005 150 150 150 255 
0.3653164 0.8511071 -0.03168934 -0.8660251 -2.185572e-08 -0.5000005 150 150 150 255 
0.3820834 0.8511071 -0.06073077 -0.8660251 -2.185572e-08 -0.5000005 150 150 150 255 
0.3653164 0.02873945 -0.0316893 0 4.371139e-08 1 150 150 150 255 
0.3988505 0.02873945 -0.0316893 0 4.371139e-08 1 150 150 150 255 
0.3988505 0.8511071 -0.03168934 0 4.371139e-08 1 150 150 150 255 
0.3653164 0.8511071 -0.03168934 0 4.371139e-08 1 150 150 150 255 
0.3988505 0.02873945 -0.0316893 0.8660254 -2.18557e-08 -0.5 150 150 150 255 
0.3820834 0.02873945 -0.06073073 0.8660254 -2.18557e-08 -0.5 150 150 150 255 
0.3820834 0.8511071 -0.06073077 0.8660254 -2.18557e-08 -0.5 150 150 150 255 
0.3988505 0.8511071 -0.03168934 0.8660254 -2.18557e-08 -0.5 150 150 150 255 
0.2601061 0.02873944 -0.3937672 -0.8660251 -2.185572e-08 -0.5000005 150 150 150 255 
0.243339 0.02873944 -0.3647258 -0.8660251 -2.185572e-08 -0.5000005 150 150 150 255 
0.243339 0.8511071 -0.3647258 -0.8660251 -2.185572e-08 -0.5000005 150 150 150 255 
0.2601061 0.8511071 -0.3937672 -0.8660251 -2.185572e-08 -0.5000005 150 150 150 255 
0.243339 0.02873944 -0.3647258 0 4.371139e-08 1 150 150 150 255 
0.2768731 0.02873944 -0.3647258 0 4.371139e-08 1 150 150 150 255 
0.2768731 0.8511071 -0.3647258 0 4.371139e-08 1 150 150 150 255 
0.243339 0.8511071 -0.3647258 0 4.371139e-08 1 150 150 150 255 
0.2768731 0.02873944 -0.3647258 0.8660254 -2.185569e-08 -0.4999999 150 150 150 255 
0.2601061 0.02873944 -0.3937672 0.8660254 -2.185569e-08 -0.4999999 150 150 150 255 
0.2601061 0.8511071 -0.3937672 0.8660254 -2.185569e-08 -0.4999999 150 150 150 255 
0.2768731 0.8511071 -0.3647258 0.8660254 -2.185569e-08 -0.4999999 150 150 150 255 
-0.3820834 0.02873946 0.2498751 0.8660251 2.185572e-08 0.5000005 150 150 150 255 
-0.3653164 0.02873946 0.2208336 0.8660251 2.185572e-08 0.5000005 150 150 150 255 
-0.3653164 0.8511071 0.2208336 0.8660251 2.185572e-08 0.5000005 150 150 150 255 
-0.3820834 0.8511071 0.249875 0.8660251 2.185572e-08 0.5000005 150 150 150 255 
-0.3653164 0.02873946 0.2208336 0 -4.371139e-08 -1 150 150 150 255 
-0.3988505 0.02873946 0.2208336 0 -4.371139e-08 -1 150 150 150 255 
-0.3988505 0.8511071 0.2208336 0 -4.371139e-08 -1 150 150 150 255 
-0.3653164 0.8511071 0.2208336 0 -4.371139e-08 -1 150 150 150 255 
-0.3988505 0.02873946 0.2208336 -0.8660254 2.185569e-08 0.4999999 150 150 150 255 
-0.3820834 0.02873946 0.2498751 -0.8660254 2.185569e-08 0.4999999 150 150 150 255 
-0.3820834 0.8511071 0.249875 -0.8660254 2.185569e-08 0.4999999 150 150 150 255 
-0.3988505 0.8511071 0.2208336 -0.8660254 2.185569e-08 0.4999999 150 150 150 255 
-0.3820834 0.02873946 0.1454384 0.8660251 2.185572e-08 0.5000005 150 150 150 255 
-0.3653164 0.02873946 0.116397 0.8660251 2.185572e-08 0.5000005 150 150 150 255 
-0.3653164 0.8511071 0.1163969 0.8660251 2.185572e-08 0.5000005 150 150 150 255 
-0.3820834 0.8511071 0.1454384 0.8660251 2.185572e-08 0.5000005 150 150 150 255 
-0.3653164 0.02873946 0.116397 0 -4.371139e-08 -1 150 150 150 255 
-0.3988505 0.02873946 0.116397 0 -4.371139e-08 -1 150 150 150 255 
-0.3988505 0.8511071 0.1163969 0 -4.371139e-08 -1 150 150 150 255 
-0.3653164 0.8511071 0.1163969 0 -4.371139e-08 -1 150 150 150 255 
-0.3988505 0.02873946 0.116397 -0.8660254 2.185569e-08 0.4999999 150 150 150 255 
-0.3820834 0.02873946 0.1454384 -0.8660254 2.185569e-08 0.4999999 150 150 150 255 
-0.3820834 0.8511071 0.1454384 -0.8660254 2.185569e-08 0.4999999 150 150 150 255 
-0.3988505 0.8511071 0.1163969 -0.8660254 2.185569e-08 0.4999999 150 150 150 255 
-0.3820834 0.02873945 0.06073073 0.8660251 2.185572e-08 0.5000005 150 150 150 255 
-0.3653164 0.02873945 0.0316893 0.8660251 2.185572e-08 0.5000005 150 150 150 255 
-0.3653164 0.8511071 0.03168926 0.8660251 2.185572e-08 0.5000005 150 150 150 255 
-0.3820834 0.8511071 0.0607307 0.8660251 2.185572e-08 0.5000005 150 150 150 255 
-0.3653164 0.02873945 0.0316893 0 -4.371139e-08 -1 150 150 150 255 
-0.3988505 0.02873945 0.0316893 0 -4.371139e-08 -1 150 150 150 255 
-0.3988505 0.8511071 0.03168926 0 -4.371139e-08 -1 150 150 150 255 
-0.3653164 0.8511071 0.03168926 0 -4.371139e-08 -1 150 150 150 255 
-0.3988505 0.02873945 0.0316893 -0.8660254 2.18557e-08 0.5 150 150 150 255 
-0.3820834 0.02873945 0.06073073 -0.8660254 2.18557e-08 0.5 150 150 150 255 
-0.3820834 0.8511071 0.0607307 -0.8660254 2.18557e-08 0.5 150 150 150 255 
-0.3988505 0.8511071 0.03168926 -0.8660254 2.18557e-08 0.5 150 150 150 255 
-0.2601061 0.02873947 0.3937672 0.8660251 2.185572e-08 0.5000005 150 150 150 255 
-0.243339 0.02873947 0.3647258 0.8660251 2.185572e-08 0.5000005 150 150 150 255 
-0.243339 0.8511071 0.3647258 0.8660251 2.185572e-08 0.5000005 150 150 150 255 
-0.2601061 0.8511071 0.3937672 0.8660251 2.185572e-08 0.5000005 150 150 150 255 
-0.243339 0.02873947 0.3647258 0 -4.371139e-08 -1 150 150 150 255 
-0.2768731 0.02873947 0.3647258 0 -4.371139e-08 -1 150 150 150 255 
-0.2768731 0.8511071 0.3647258 0 -4.371139e-08 -1 150 150 150 255 
-0.243339 0.8511071 0.3647258 0 -4.371139e-08 -1 150 150 150 255 
-0.2768731 0.02873947 0.3647258 -0.8660254 2.185569e-08 0.4999999 150 150 150 255 
-0.2601061 0.02873947 0.3937672 -0.8660254 2.185569e-08 0.4999999 150 150 150 255 
-0.2601061 0.8511071 0.3937672 -0.8660254 2.185569e-08 0.4999999 150 150 150 255 
-0.2768731 0.8511071 0.3647258 -0.8660254 2.185569e-08 0.4999999 150 150 150 255 
-0.1673797 0.02873947 0.3937672 0.8660251 2.185572e-08 0.5000005 150 150 150 255 
-0.1506126 0.02873947 0.3647258 0.8660251 2.185572e-08 0.5000005 150 150 150 255 
-0.1506126 0.8511071 0.3647258 0.8660251 2.185572e-08 0.5000005 150 150 150 255 
-0.1673797 0.8511071 0.3937672 0.8660251 2.185572e-08 0.5000005 150 150 150 255 
-0.1506126 0.02873947 0.3647258 0 -4.371139e-08 -1 150 150 150 255 
-0.1841468 0.02873947 0.3647258 0 -4.371139e-08 -1 150 150 150 255 
-0.1841468 0.8511071 0.3647258 0 -4.371139e-08 -1 150 150 150 255 
-0.1506126 0.8511071 0.3647258 0 -4.371139e-08 -1 150 150 150 255 
-0.1841468 0.02873947 0.3647258 -0.8660253 2.18557e-08 0.5000002 150 150 150 255 
-0.1673797 0.02873947 0.3937672 -0.8660253 2.18557e-08 0.5000002 150 150 150 255 
-0.1673797 0.8511071 0.3937672 -0.8660253 2.18557e-08 0.5000002 150 150 150 255 
-0.1841468 0.8511071 0.3647258 -0.8660253 2.18557e-08 0.5000002 150 150 150 255 
-0.05180042 0.02873947 0.3937672 0.8660251 2.185572e-08 0.5000005 150 150 150 255 
-0.03503332 0.02873947 0.3647258 0.8660251 2.185572e-08 0.5000005 150 150 150 255 
-0.03503332 0.8511071 0.3647258 0.8660251 2.185572e-08 0.5000005 150 150 150 255 
-0.05180042 0.8511071 0.3937672 0.8660251 2.185572e-08 0.5000005 150 150 150 255 
-0.03503332 0.02873947 0.3647258 0 -4.371139e-08 -1 150 150 150 255 
-0.06856749 0.02873947 0.3647258 0 -4.371139e-08 -1 150 150 150 255 
-0.06856749 0.8511071 0.3647258 0 -4.371139e-08 -1 150 150 150 255 
-0.03503332 0.8511071 0.3647258 0 -4.371139e-08 -1 150 150 150 255 
-0.06856749 0.02873947 0.3647258 -0.8660253 2.18557e-08 0.5000002 150 150 150 255 
-0.05180042 0.02873947 0.3937672 -0.8660253 2.18557e-08 0.5000002 150 150 150 255 
-0.05180042 0.8511071 0.3937672 -0.8660253 2.18557e-08 0.5000002 150 150 150 255 
-0.06856749 0.8511071 0.3647258 -0.8660253 2.18557e-08 0.5000002 150 150 150 255 
0.3820834 0.02873946 0.2498751 -0.8660251 2.185572e-08 0.5000005 150 150 150 255 
0.3820834 0.8511071 0.249875 -0.8660251 2.185572e-08 0.5000005 150 150 150 255 
0.3653164 0.8511071 0.2208336 -0.8660251 2.185572e-08 0.5000005 150 150 150 255 
0.3653164 0.02873946 0.2208336 -0.8660251 2.185572e-08 0.5000005 150 150 150 255 
0.3653164 0.02873946 0.2208336 0 -4.371139e-08 -1 150 150 150 255 
0.3653164 0.8511071 0.2208336 0 -4.371139e-08 -1 150 150 150 255 
0.3988505 0.8511071 0.2208336 0 -4.371139e-08 -1 150 150 150 255 
0.3988505 0.02873946 0.2208336 0 -4.371139e-08 -1 150 150 150 255 
0.3988505 0.02873946 0.2208336 0.8660254 2.185569e-08 0.4999999 150 150 150 255 
0.3988505 0.8511071 0.2208336 0.8660254 2.185569e-08 0.4999999 150 150 150 255 
0.3820834 0.8511071 0.249875 0.8660254 2.185569e-08 0.4999999 150 150 150 255 
0.3820834 0.02873946 0.2498751 0.8660254 2.185569e-08 0.4999999 150 150 150 255 
0.3820834 0.02873946 0.1454384 -0.8660251 2.185572e-08 0.5000005 150 150 150 255 
0.3820834 0.8511071 0.1454384 -0.8660251 2.185572e-08 0.5000005 150 150 150 255 
0.3653164 0.8511071 0.1163969 -0.8660251 2.185572e-08 0.5000005 150 150 150 255 
0.3653164 0.02873946 0.116397 -0.8660251 2.185572e-08 0.5000005 150 150 150 255 
0.3653164 0.02873946 0.116397 0 -4.371139e-08 -1 150 150 150 255 
0.3653164 0.8511071 0.1163969 0 -4.371139e-08 -1 150 150 150 255 
0.3988505 0.8511071 0.1163969 0 -4.371139e-08 -1 150 150 150 255 
0.3988505 0.02873946 0.116397 0 -4.371139e-08 -1 150 150 150 255 
0.3988505 0.02873946 0.116397 0.8660254 2.185569e-08 0.4999999 150 150 150 255 
0.3988505 0.8511071 0.1163969 0.8660254 2.185569e-08 0.4999999 150 150 150 255 
0.3820834 0.8511071 0.1454384 0.8660254 2.185569e-08 0.4999999 150 150 150 255 
0.3820834 0.02873946 0.1454384 0.8660254 2.185569e-08 0.4999999 150 150 150 255 
0.3820834 0.02873945 0.06073073 -0.8660251 2.185572e-08 0.5000005 150 150 150 255 
0.3820834 0.8511071 0.0607307 -0.8660251 2.185572e-08 0.5000005 150 150 150 255 
0.3653164 0.8511071 0.03168926 -0.8660251 2.185572e-08 0.5000005 150 150 150 255 
0.3653164 0.02873945 0.0316893 -0.8660251 2.185572e-08 0.5000005 150 150 150 255 
0.3653164 0.02873945 0.0316893 0 -4.371139e-08 -1 150 150 150 255 
0.3653164 0.8511071 0.03168926 0 -4.371139e-08 -1 150 150 150 255 
0.3988505 0.8511071 0.03168926 0 -4.371139e-08 -1 150 150 150 255 
0.3988505 0.02873945 0.0316893 0 -4.371139e-08 -1 150 150 150 255 
0.3988505 0.02873945 0.0316893 0.8660254 2.18557e-08 0.5 150 150 150 255 
0.3988505 0.8511071 0.03168926 0.8660254 2.18557e-08 0.5 150 150 150 255 
0.3820834 0.8511071 0.0607307 0.8660254 2.18557e-08 0.5 150 150 150 255 
0.3820834 0.02873945 0.06073073 0.8660254 2.18557e-08 0.5 150 150 150 255 
0.2601061 0.02873947 0.3937672 -0.8660251 2.185572e-08 0.5000005 150 150 150 255 
0.2601061 0.8511071 0.3937672 -0.8660251 2.185572e-08 0.5000005 150 150 150 255 
0.243339 0.8511071 0.3647258 -0.8660251 2.185572e-08 0.5000005 150 150 150 255 
0.243339 0.02873947 0.3647258 -0.8660251 2.185572e-08 0.5000005 150 150 150 255 
0.243339 0.02873947 0.3647258 0 -4.371139e-08 -1 150 150 150 255 
0.243339 0.8511071 0.3647258 0 -4.371139e-08 -1 150 150 150 255 
0.2768731 0.8511071 0.3647258 0 -4.371139e-08 -1 150 150 150 255 
0.2768731 0.02873947 0.3647258 0 -4.371139e-08 -1 150 150 150 255 
0.2768731 0.02873947 0.3647258 0.8660254 2.185569e-08 0.4999999 150 150 150 255 
0.2768731 0.8511071 0.3647258 0.8660254 2.185569e-08 0.4999999 150 150 150 255 
0.2601061 0.8511071 0.3937672 0.8660254 2.185569e-08 0.4999999 150 150 150 255 
0.2601061 0.02873947 0.3937672 0.8660254 2.185569e-08 0.4999999 150 150 150 255 
0.1673797 0.02873947 0.3937672 -0.8660251 2.185572e-08 0.5000005 150 150 150 255 
0.1673797 0.8511071 0.3937672 -0.8660251 2.185572e-08 0.5000005 150 150 150 255 
0.1506126 0.8511071 0.3647258 -0.8660251 2.185572e-08 0.5000005 150 150 150 255 
0.1506126 0.02873947 0.3647258 -0.8660251 2.185572e-08 0.5000005 150 150 150 255 
0.1506126 0.02873947 0.3647258 0 -4.371139e-08 -1 150 150 150 255 
0.1506126 0.8511071 0.3647258 0 -4.371139e-08 -1 150 150 150 255 
0.1841468 0.8511071 0.3647258 0 -4.371139e-08 -1 150 150 150 255 
0.1841468 0.02873947 0.3647258 0 -4.371139e-08 -1 150 150 150 255 
0.1841468 0.02873947 0.3647258 0.8660253 2.18557e-08 0.5000002 150 150 150 255 
0.1841468 0.8511071 0.3647258 0.8660253 2.18557e-08 0.5000002 150 150 150 255 
0.1673797 0.8511071 0.3937672 0.8660253 2.18557e-08 0.5000002 150 150 150 255 
0.1673797 0.02873947 0.3937672 0.8660253 2.18557e-08 0.5000002 150 150 150 255 
0.05180042 0.02873947 0.3937672 -0.8660251 2.185572e-08 0.5000005 150 150 150 255 
0.05180042 0.8511071 0.3937672 -0.8660251 2.185572e-08 0.5000005 150 150 150 255 
0.03503332 0.8511071 0.3647258 -0.8660251 2.185572e-08 0.5000005 150 150 150 255 
0.03503332 0.02873947 0.3647258 -0.8660251 2.185572e-08 0.5000005 150 150 150 255 
0.03503332 0.02873947 0.3647258 0 -4.371139e-08 -1 150 150 150 255 
0.03503332 0.8511071 0.3647258 0 -4.371139e-08 -1 150 150 150 255 
0.06856749 0.8511071 0.3647258 0 -4.371139e-08 -1 150 150 150 255 
0.06856749 0.02873947 0.3647258 0 -4.371139e-08 -1 150 150 150 255 
0.06856749 0.02873947 0.3647258 0.8660253 2.18557e-08 0.5000002 150 150 150 255 
0.06856749 0.8511071 0.3647258 0.8660253 2.18557e-08 0.5000002 150 150 150 255 
0.05180042 0.8511071 0.3937672 0.8660253 2.18557e-08 0.5000002 150 150 150 255 
0.05180042 0.02873947 0.3937672 0.8660253 2.18557e-08 0.5000002 150 150 150 255 
3 0 1 2 
3 0 2 3 
3 4 5 6 
3 4 6 7 
3 8 9 10 
3 8 10 11 
3 12 13 14 
3 12 14 15 
3 16 17 18 
3 16 18 19 
3 20 21 22 
3 20 22 23 
3 24 25 26 
3 24 26 27 
3 28 29 30 
3 28 30 31 
3 32 33 34 
3 32 34 35 
3 36 37 5 
3 36 5 4 
3 38 39 40 
3 38 40 41 
3 42 43 9 
3 42 9 8 
3 44 45 46 
3 44 46 47 
3 48 49 50 
3 48 50 51 
3 52 53 54 
3 52 54 55 
3 56 57 58 
3 56 58 59 
3 60 61 62 
3 60 62 63 
3 34 33 64 
3 34 64 65 
3 66 67 68 
3 66 68 69 
3 70 71 72 
3 70 72 73 
3 74 75 76 
3 74 76 77 
3 78 79 80 
3 78 80 81 
3 82 83 84 
3 82 84 85 
3 86 87 88 
3 86 88 89 
3 90 91 92 
3 90 92 93 
3 94 95 96 
3 94 96 97 
3 98 99 100 
3 98 100 101 
3 69 68 102 
3 69 102 103 
3 104 105 106 
3 104 106 107 
3 108 109 110 
3 108 110 111 
3 59 112 113 
3 59 113 56 
3 114 83 82 
3 114 82 115 
3 116 117 118 
3 116 118 119 
3 120 121 122 
3 120 122 123 
3 124 125 126 
3 124 126 127 
3 128 129 130 
3 128 130 131 
3 132 133 134 
3 132 134 135 
3 136 137 138 
3 136 138 139 
3 140 141 142 
3 140 142 143 
3 144 145 146 
3 144 146 147 
3 148 149 150 
3 148 150 151 
3 152 153 154 
3 152 154 155 
3 156 157 158 
3 156 158 159 
3 160 161 162 
3 160 162 163 
3 164 165 166 
3 164 166 167 
3 168 169 170 
3 168 170 171 
3 172 173 174 
3 172 174 175 
3 176 177 178 
3 176 178 179 
3 180 181 182 
3 180 182 183 
3 184 185 186 
3 184 186 187 
3 188 189 190 
3 188 190 191 
3 192 193 194 
3 192 194 195 
3 196 197 198 
3 196 198 199 
3 200 201 202 
3 200 202 203 
3 204 205 206 
3 204 206 207 
3 208 209 210 
3 208 210 211 
3 212 213 214 
3 212 214 215 
3 216 217 218 
3 216 218 219 
3 220 221 222 
3 220 222 223 
3 224 225 226 
3 224 226 227 
3 228 229 230 
3 228 230 231 
3 232 233 234 
3 232 234 235 
3 236 237 238 
3 236 238 239 
3 240 241 242 
3 240 242 243 
3 244 245 246 
3 244 246 247 
3 248 249 250 
3 248 250 251 
3 252 253 254 
3 252 254 255 
3 256 257 258 
3 256 258 259 
3 260 261 262 
3 260 262 263 
3 264 265 266 
3 264 266 267 
3 268 269 270 
3 268 270 271 
3 272 273 274 
3 272 274 275 
3 276 277 278 
3 276 278 279 
3 280 281 282 
3 280 282 283 
3 284 285 286 
3 284 286 287 
3 288 289 290 
3 288 290 291 
3 292 293 294 
3 292 294 295 
3 296 297 298 
3 296 298 299 
3 300 301 302 
3 300 302 303 
3 304 305 306 
3 304 306 307 
3 308 309 310 
3 308 310 311 
3 312 313 314 
3 312 314 315 
3 316 317 318 
3 316 318 319 
3 320 321 322 
3 320 322 323 
3 324 325 326 
3 324 326 327 
3 328 329 330 
3 328 330 331 
3 332 333 334 
3 332 334 335 
3 336 337 338 
3 336 338 339 
3 340 341 342 
3 340 342 343 
3 344 345 346 
3 344 346 347 
3 348 349 350 
3 348 350 351 
3 352 353 354 
3 352 354 355 
3 356 357 358 
3 356 358 359 
3 360 361 362 
3 360 362 363 
3 364 365 366 
3 364 366 367 
3 368 369 370 
3 368 370 371 
3 372 373 374 
3 372 374 375 
3 376 377 378 
3 376 378 379 
3 380 381 382 
3 380 382 383 
3 384 385 386 
3 384 386 387 
3 388 389 390 
3 388 390 391 
3 392 393 394 
3 392 394 395 
3 396 397 398 
3 396 398 399 
3 400 401 402 
3 400 402 403 
3 404 405 406 
3 404 406 407 
3 408 409 410 
3 408 410 411 
3 412 413 414 
3 412 414 415 
3 416 417 418 
3 416 418 419 
3 420 421 422 
3 420 422 423 
3 424 425 426 
3 424 426 427 
3 428 429 430 
3 428 430 431 
3 432 433 434 
3 432 434 435 
3 436 437 438 
3 436 438 439 
3 440 441 442 
3 440 442 443 
3 444 445 446 
3 444 446 447 
3 448 449 450 
3 448 450 451 
3 452 453 454 
3 452 454 455 
3 456 457 458 
3 456 458 459 
3 460 461 462 
3 460 462 463 
3 464 465 466 
3 464 466 467 
3 468 469 470 
3 468 470 471 
3 472 473 474 
3 472 474 475 
