ply
format ascii 1.0
comment VCGLIB generated
element vertex 136
property float x
property float y
property float z
property float nx
property float ny
property float nz
property uchar red
property uchar green
property uchar blue
property uchar alpha
element face 268
property list uchar int vertex_indices
end_header
19.95069 3 11.42247 0.3540576 0.8628687 0.3606949 150 150 150 255 
22.5279 0 13.81695 0.6751935 0.2451876 0.6956988 150 150 150 255 
22.5279 0 0 0.9087448 -0.4173524 0 150 150 150 255 
19.95069 3 0 0.4758088 0.8795488 0 150 150 150 255 
18.28545 3.54513 9.68469 0.29256 0.9103832 0.2925936 150 150 150 255 
18.28545 3.54513 0 0.7420222 0.6703755 0 150 150 150 255 
17.67948 4.69845 9.15594 0.6715781 -0.3208942 0.6678396 150 150 150 255 
17.67948 4.69845 0 0.9777051 -0.209983 0 150 150 150 255 
18.37623 5.24358 0 0.9539147 -0.3000779 0 150 150 150 255 
18.37623 5.24358 9.91353 0.6466182 -0.4224975 0.6351227 150 150 150 255 
17.7 7.45044 9.27243 0.5024065 0.702315 0.5043227 150 150 150 255 
17.7 7.45044 0 0.5649885 0.8250989 0 150 150 150 255 
16.5 7.8 8.072431 0.3371921 0.8783675 0.3387803 150 150 150 255 
16.5 7.8 0 0.8782561 0.4781907 0 150 150 150 255 
15.36423 16.10202 7.55619 0.4369727 -0.7845848 0.4398655 150 150 150 255 
15.36423 16.10202 0 0.757757 -0.6525369 0 150 150 150 255 
13.5903 20.52606 4.41672 0.7403349 -0.3597829 -0.567856 150 150 150 255 
13.8303 18.63411 5.05059 0.3803854 0.5714866 -0.7271245 150 150 150 255 
13.8303 18.63411 0 0.8457647 0.5335561 0 150 150 150 255 
13.5903 20.52606 0 0.9930911 0.1173461 0 150 150 150 255 
13.41639 22.1952 2.54079 0.5930816 -0.7421679 -0.3121555 150 150 150 255 
13.31814 22.6716 0 0.7524221 -0.6586813 -5.642291e-09 150 150 150 255 
-16.43664 16.11594 8.68569 -0.2843978 -0.7686355 0.57299 150 150 150 255 
16.43664 16.11594 8.68569 0.439627 -0.781406 0.4428688 150 150 150 255 
16.18749 17.8068 8.56269 0.5314992 0.6518055 0.540979 150 150 150 255 
-16.18749 17.8068 8.56269 -0.5041428 0.7419484 0.4419871 150 150 150 255 
14.91504 18.63411 7.35201 0.4028512 0.6522664 0.6420743 150 150 150 255 
11.06574 18.63408 7.35201 -0.3421676 0.8244899 0.4507081 150 150 150 255 
16.43664 16.11594 0 0.761119 -0.6486123 0 150 150 150 255 
11.06574 21.71466 6.22974 -0.7160534 0.3389901 0.6102076 150 150 150 255 
14.4936 21.71466 6.22974 0.6801909 0.5077975 0.5286608 150 150 150 255 
11.06574 23.95659 3.79491 -0.7165858 0.5826997 0.3833614 150 150 150 255 
14.20815 23.95659 3.79491 0.6685162 0.6934979 0.2686016 150 150 150 255 
11.06574 24.93735 0 -0.4588527 0.8885124 0 150 150 150 255 
14.05272 24.93735 0 0.8439757 0.5363814 -7.944012e-10 150 150 150 255 
11.06574 21.16461 5.39562 -0.7201107 0.4478773 0.5299496 150 150 150 255 
11.06574 18.63537 6.22146 -0.3714958 0.6021128 0.7067185 150 150 150 255 
11.06574 23.00622 3.11703 -0.7150373 0.6494666 0.2586791 150 150 150 255 
11.06574 23.73735 0 -0.8991284 0.4376851 0 150 150 150 255 
14.4732 22.1952 2.54079 0.7582058 -0.5245379 -0.3872777 150 150 150 255 
14.36721 22.6716 0 0.4774252 -0.8786724 0 150 150 150 255 
14.66082 20.52606 4.41672 0.7379815 -0.2433655 -0.6294097 150 150 150 255 
14.91975 18.63411 5.05059 0.7094725 0.6800483 -0.1848872 150 150 150 255 
-11.06574 18.63408 7.35201 0.4816454 0.7209207 0.4982881 150 150 150 255 
14.91975 18.63408 0 0.189137 0.9819507 5.901495e-14 150 150 150 255 
16.18749 17.8068 0 0.7528182 0.6582285 0 150 150 150 255 
-22.5279 0 13.81695 -0.4358434 -0.05787856 0.8981596 150 150 150 255 
-22.5279 0 0 -0.9805988 0.1960256 0 150 150 150 255 
-19.95069 3 11.42247 -0.3445671 0.9020003 0.2601327 150 150 150 255 
-18.28545 3.54513 9.68469 -0.3076641 0.8477032 0.4321367 150 150 150 255 
-17.67948 4.69845 9.15594 -0.8552492 -0.2961695 0.4252441 150 150 150 255 
-18.37623 5.24358 9.91353 -0.4136778 -0.4104578 0.8126469 150 150 150 255 
-17.7 7.45044 9.27243 -0.4767241 0.8145527 0.3305119 150 150 150 255 
-16.5 7.8 8.072431 -0.3711706 0.7518492 0.544936 150 150 150 255 
-15.36423 16.10202 7.55619 -0.575649 -0.7646469 0.28973 150 150 150 255 
-11.06574 21.16461 5.39562 0.7201107 0.3356963 0.6072468 150 150 150 255 
-11.06574 18.63537 6.22146 0.3714958 0.8582997 0.353995 150 150 150 255 
-11.06574 23.00622 3.11703 0.7150373 0.6027895 0.3540713 150 150 150 255 
-11.06574 23.73735 0 0.7165098 0.6975771 0 150 150 150 255 
-19.95069 3 0 -0.4758088 0.8795488 0 150 150 150 255 
-18.28545 3.54513 0 -0.7420222 0.6703755 0 150 150 150 255 
-17.67948 4.69845 0 -0.9777051 -0.209983 0 150 150 150 255 
-18.37623 5.24358 0 -0.9539147 -0.3000779 0 150 150 150 255 
-17.7 7.45044 0 -0.5649885 0.8250989 0 150 150 150 255 
-16.5 7.8 0 -0.8782561 0.4781907 0 150 150 150 255 
-15.36423 16.10202 0 -0.757757 -0.6525369 0 150 150 150 255 
-13.5903 20.52606 4.41672 -0.7403349 -0.3597829 -0.567856 150 150 150 255 
-13.5903 20.52606 0 -0.9930911 0.1173461 0 150 150 150 255 
-13.8303 18.63411 0 -0.8457647 0.5335561 0 150 150 150 255 
-13.8303 18.63411 5.05059 -0.3803854 0.5714866 -0.7271245 150 150 150 255 
-13.41639 22.1952 2.54079 -0.5930816 -0.7421679 -0.3121555 150 150 150 255 
-13.31814 22.6716 0 -0.7524221 -0.6586813 -5.642291e-09 150 150 150 255 
-14.91504 18.63411 7.35201 -0.4028512 0.6522664 0.6420743 150 150 150 255 
-16.43664 16.11594 0 -0.761119 -0.6486123 0 150 150 150 255 
-11.06574 21.71466 6.22974 0.7160534 0.3389901 0.6102076 150 150 150 255 
-14.4936 21.71466 6.22974 -0.6801909 0.5077975 0.5286608 150 150 150 255 
-11.06574 23.95659 3.79491 0.7165858 0.5826997 0.3833614 150 150 150 255 
-14.20815 23.95659 3.79491 -0.6685162 0.6934979 0.2686016 150 150 150 255 
-11.06574 24.93735 0 0.4588527 0.8885124 0 150 150 150 255 
-14.05272 24.93735 0 -0.8439757 0.5363814 -7.944012e-10 150 150 150 255 
-14.4732 22.1952 2.54079 -0.7582058 -0.5245379 -0.3872777 150 150 150 255 
-14.36721 22.6716 0 -0.4774252 -0.8786724 0 150 150 150 255 
-14.66082 20.52606 4.41672 -0.7379815 -0.2433655 -0.6294097 150 150 150 255 
-14.91975 18.63411 5.05059 -0.7094725 0.6800483 -0.1848872 150 150 150 255 
-14.91975 18.63408 0 -0.189137 0.9819507 5.901495e-14 150 150 150 255 
-16.18749 17.8068 0 -0.7528182 0.6582285 0 150 150 150 255 
19.95069 3 -11.42247 0.3540576 0.8628687 -0.3606949 150 150 150 255 
22.5279 0 -13.81695 0.6751935 0.2451876 -0.6956988 150 150 150 255 
18.28545 3.54513 -9.68469 0.29256 0.9103832 -0.2925936 150 150 150 255 
17.67948 4.69845 -9.15594 0.6715781 -0.3208942 -0.6678396 150 150 150 255 
18.37623 5.24358 -9.91353 0.6466182 -0.4224975 -0.6351227 150 150 150 255 
17.7 7.45044 -9.27243 0.5024065 0.702315 -0.5043227 150 150 150 255 
16.5 7.8 -8.072431 0.3371921 0.8783675 -0.3387803 150 150 150 255 
15.36423 16.10202 -7.55619 0.4369727 -0.7845848 -0.4398655 150 150 150 255 
13.5903 20.52606 -4.41672 0.7403349 -0.3597829 0.567856 150 150 150 255 
13.8303 18.63411 -5.05059 0.3803854 0.5714866 0.7271245 150 150 150 255 
13.41639 22.1952 -2.54079 0.5930816 -0.7421679 0.3121555 150 150 150 255 
-16.43664 16.11594 -8.68569 -0.2843978 -0.7686355 -0.57299 150 150 150 255 
-16.18749 17.8068 -8.56269 -0.5041428 0.7419484 -0.4419871 150 150 150 255 
16.18749 17.8068 -8.56269 0.5314992 0.6518055 -0.540979 150 150 150 255 
16.43664 16.11594 -8.68569 0.439627 -0.781406 -0.4428688 150 150 150 255 
14.91504 18.63411 -7.35201 0.4028512 0.6522664 -0.6420743 150 150 150 255 
11.06574 18.63408 -7.35201 -0.3421676 0.8244899 -0.4507081 150 150 150 255 
11.06574 21.71466 -6.22974 -0.7160534 0.3389901 -0.6102076 150 150 150 255 
14.4936 21.71466 -6.22974 0.6801909 0.5077975 -0.5286608 150 150 150 255 
11.06574 23.95659 -3.79491 -0.7165858 0.5826997 -0.3833614 150 150 150 255 
14.20815 23.95659 -3.79491 0.6685162 0.6934979 -0.2686016 150 150 150 255 
11.06574 21.16461 -5.39562 -0.7201107 0.4478773 -0.5299496 150 150 150 255 
11.06574 18.63537 -6.22146 -0.3714958 0.6021128 -0.7067185 150 150 150 255 
11.06574 23.00622 -3.11703 -0.7150373 0.6494666 -0.2586791 150 150 150 255 
14.4732 22.1952 -2.54079 0.7582058 -0.5245379 0.3872777 150 150 150 255 
14.66082 20.52606 -4.41672 0.7379815 -0.2433655 0.6294097 150 150 150 255 
14.91975 18.63411 -5.05059 0.7094725 0.6800483 0.1848872 150 150 150 255 
-11.06574 18.63408 -7.35201 0.4816454 0.7209207 -0.4982881 150 150 150 255 
-22.5279 0 -13.81695 -0.4358434 -0.05787856 -0.8981596 150 150 150 255 
-19.95069 3 -11.42247 -0.3445671 0.9020003 -0.2601327 150 150 150 255 
-18.28545 3.54513 -9.68469 -0.3076641 0.8477032 -0.4321367 150 150 150 255 
-17.67948 4.69845 -9.15594 -0.8552492 -0.2961695 -0.4252441 150 150 150 255 
-18.37623 5.24358 -9.91353 -0.4136778 -0.4104578 -0.8126469 150 150 150 255 
-17.7 7.45044 -9.27243 -0.4767241 0.8145527 -0.3305119 150 150 150 255 
-16.5 7.8 -8.072431 -0.3711706 0.7518492 -0.544936 150 150 150 255 
-15.36423 16.10202 -7.55619 -0.575649 -0.7646469 -0.28973 150 150 150 255 
-11.06574 21.16461 -5.39562 0.7201107 0.3356963 -0.6072468 150 150 150 255 
-11.06574 18.63537 -6.22146 0.3714958 0.8582997 -0.353995 150 150 150 255 
-11.06574 23.00622 -3.11703 0.7150373 0.6027895 -0.3540713 150 150 150 255 
-13.5903 20.52606 -4.41672 -0.7403349 -0.3597829 0.567856 150 150 150 255 
-13.8303 18.63411 -5.05059 -0.3803854 0.5714866 0.7271245 150 150 150 255 
-13.41639 22.1952 -2.54079 -0.5930816 -0.7421679 0.3121555 150 150 150 255 
-14.91504 18.63411 -7.35201 -0.4028512 0.6522664 -0.6420743 150 150 150 255 
-11.06574 21.71466 -6.22974 0.7160534 0.3389901 -0.6102076 150 150 150 255 
-14.4936 21.71466 -6.22974 -0.6801909 0.5077975 -0.5286608 150 150 150 255 
-11.06574 23.95659 -3.79491 0.7165858 0.5826997 -0.3833614 150 150 150 255 
-14.20815 23.95659 -3.79491 -0.6685162 0.6934979 -0.2686016 150 150 150 255 
-14.4732 22.1952 -2.54079 -0.7582058 -0.5245379 0.3872777 150 150 150 255 
-14.66082 20.52606 -4.41672 -0.7379815 -0.2433655 0.6294097 150 150 150 255 
-14.91975 18.63411 -5.05059 -0.7094725 0.6800483 0.1848872 150 150 150 255 
3 0 1 2 
3 0 2 3 
3 4 0 3 
3 4 3 5 
3 6 4 5 
3 6 5 7 
3 8 9 6 
3 8 6 7 
3 10 9 8 
3 10 8 11 
3 12 10 11 
3 12 11 13 
3 14 12 13 
3 14 13 15 
3 16 17 18 
3 16 18 19 
3 20 16 19 
3 20 19 21 
3 22 23 24 
3 22 24 25 
3 26 27 24 
3 28 23 14 
3 28 14 15 
3 29 27 26 
3 29 26 30 
3 31 29 30 
3 31 30 32 
3 33 31 32 
3 33 32 34 
3 35 36 27 
3 35 27 29 
3 37 35 29 
3 37 29 31 
3 38 37 31 
3 38 31 33 
3 39 40 34 
3 39 34 32 
3 41 39 32 
3 41 32 30 
3 42 41 30 
3 42 30 26 
3 42 26 24 
3 25 24 27 
3 25 27 43 
3 17 42 44 
3 17 44 18 
3 20 21 40 
3 20 40 39 
3 16 20 39 
3 16 39 41 
3 17 16 41 
3 17 41 42 
3 28 45 24 
3 28 24 23 
3 45 44 42 
3 45 42 24 
3 46 47 2 
3 46 2 1 
3 46 1 0 
3 46 0 48 
3 48 0 4 
3 48 4 49 
3 49 4 6 
3 49 6 50 
3 51 50 6 
3 51 6 9 
3 51 9 10 
3 51 10 52 
3 52 10 12 
3 52 12 53 
3 53 12 14 
3 53 14 54 
3 55 56 36 
3 55 36 35 
3 57 55 35 
3 57 35 37 
3 58 57 37 
3 58 37 38 
3 22 54 14 
3 22 14 23 
3 56 43 27 
3 56 27 36 
3 48 59 47 
3 48 47 46 
3 49 60 59 
3 49 59 48 
3 50 61 60 
3 50 60 49 
3 62 61 50 
3 62 50 51 
3 52 63 62 
3 52 62 51 
3 53 64 63 
3 53 63 52 
3 54 65 64 
3 54 64 53 
3 66 67 68 
3 66 68 69 
3 70 71 67 
3 70 67 66 
3 72 25 43 
3 73 65 54 
3 73 54 22 
3 74 75 72 
3 74 72 43 
3 76 77 75 
3 76 75 74 
3 78 79 77 
3 78 77 76 
3 55 74 43 
3 55 43 56 
3 57 76 74 
3 57 74 55 
3 58 78 76 
3 58 76 57 
3 80 77 79 
3 80 79 81 
3 82 75 77 
3 82 77 80 
3 83 72 75 
3 83 75 82 
3 83 25 72 
3 69 68 84 
3 69 84 83 
3 70 80 81 
3 70 81 71 
3 66 82 80 
3 66 80 70 
3 69 83 82 
3 69 82 66 
3 73 22 25 
3 73 25 85 
3 85 25 83 
3 85 83 84 
3 86 3 2 
3 86 2 87 
3 88 5 3 
3 88 3 86 
3 89 7 5 
3 89 5 88 
3 8 7 89 
3 8 89 90 
3 91 11 8 
3 91 8 90 
3 92 13 11 
3 92 11 91 
3 93 15 13 
3 93 13 92 
3 94 19 18 
3 94 18 95 
3 96 21 19 
3 96 19 94 
3 97 98 99 
3 97 99 100 
3 101 99 102 
3 28 15 93 
3 28 93 100 
3 103 104 101 
3 103 101 102 
3 105 106 104 
3 105 104 103 
3 33 34 106 
3 33 106 105 
3 107 103 102 
3 107 102 108 
3 109 105 103 
3 109 103 107 
3 38 33 105 
3 38 105 109 
3 110 106 34 
3 110 34 40 
3 111 104 106 
3 111 106 110 
3 112 101 104 
3 112 104 111 
3 112 99 101 
3 98 113 102 
3 98 102 99 
3 95 18 44 
3 95 44 112 
3 96 110 40 
3 96 40 21 
3 94 111 110 
3 94 110 96 
3 95 112 111 
3 95 111 94 
3 28 100 99 
3 28 99 45 
3 45 99 112 
3 45 112 44 
3 114 87 2 
3 114 2 47 
3 114 115 86 
3 114 86 87 
3 115 116 88 
3 115 88 86 
3 116 117 89 
3 116 89 88 
3 118 90 89 
3 118 89 117 
3 118 119 91 
3 118 91 90 
3 119 120 92 
3 119 92 91 
3 120 121 93 
3 120 93 92 
3 122 107 108 
3 122 108 123 
3 124 109 107 
3 124 107 122 
3 58 38 109 
3 58 109 124 
3 97 100 93 
3 97 93 121 
3 123 108 102 
3 123 102 113 
3 115 114 47 
3 115 47 59 
3 116 115 59 
3 116 59 60 
3 117 116 60 
3 117 60 61 
3 62 118 117 
3 62 117 61 
3 119 118 62 
3 119 62 63 
3 120 119 63 
3 120 63 64 
3 121 120 64 
3 121 64 65 
3 125 126 68 
3 125 68 67 
3 127 125 67 
3 127 67 71 
3 128 113 98 
3 73 97 121 
3 73 121 65 
3 129 113 128 
3 129 128 130 
3 131 129 130 
3 131 130 132 
3 78 131 132 
3 78 132 79 
3 122 123 113 
3 122 113 129 
3 124 122 129 
3 124 129 131 
3 58 124 131 
3 58 131 78 
3 133 81 79 
3 133 79 132 
3 134 133 132 
3 134 132 130 
3 135 134 130 
3 135 130 128 
3 135 128 98 
3 126 135 84 
3 126 84 68 
3 127 71 81 
3 127 81 133 
3 125 127 133 
3 125 133 134 
3 126 125 134 
3 126 134 135 
3 73 85 98 
3 73 98 97 
3 85 84 135 
3 85 135 98 
