ply
format ascii 1.0
comment VCGLIB generated
element vertex 246
property float x
property float y
property float z
property float nx
property float ny
property float nz
property uchar red
property uchar green
property uchar blue
property uchar alpha
element face 494
property list uchar int vertex_indices
end_header
-0.6195999 -0.08879983 -3.9957 -0.2601976 0.8861378 0.3834802 150 150 150 255 
-0.6384999 -0.06989988 -2.6957 -0.3108074 0.8574693 -0.4100552 150 150 150 255 
-0.4687 -0.06989988 -2.6957 0.2220971 0.9252762 -0.3074685 150 150 150 255 
-0.5569999 -0.08879983 -3.9957 -0.04536609 0.9231198 0.3818268 150 150 150 255 
-0.4876 -0.08879983 -3.9957 0.2258384 0.7898934 0.5701451 150 150 150 255 
-0.5569999 -0.3487998 -3.9957 0.04341076 -0.9234416 0.3812757 150 150 150 255 
-0.4876 -0.3487998 -3.9957 0.296049 -0.8468751 0.4417665 150 150 150 255 
-0.4687 -0.3676999 -2.6957 0.2028067 -0.940505 -0.2726167 150 150 150 255 
-0.6195999 -0.3487998 -3.9957 -0.18873 -0.8603102 0.4735477 150 150 150 255 
-0.6384999 -0.3676999 -2.6957 -0.2877894 -0.8732426 -0.3932236 150 150 150 255 
-0.5569999 -0.1429998 -4.425 0 0.3110575 -0.9503911 150 150 150 255 
-0.4778 -0.1429998 -4.425 0.3347309 0.3347309 -0.8808578 150 150 150 255 
-0.4778 -0.2277998 -4.425 0.3902162 4.02461e-08 -0.9207233 150 150 150 255 
-0.4778 -0.2944998 -4.425 0.2344783 -0.2343965 -0.9434396 150 150 150 255 
-0.6294 -0.1429998 -4.425 -0.2344926 0.2344925 -0.9434122 150 150 150 255 
-0.5569999 -0.2944998 -4.425 0 -0.3109263 -0.950434 150 150 150 255 
-0.6294 -0.2944998 -4.425 -0.3347085 -0.3345916 -0.8809192 150 150 150 255 
-0.6294 -0.2277998 -4.425 -0.3902163 4.024609e-08 -0.9207232 150 150 150 255 
-0.4236 -0.1527998 -3.9957 0.8873646 0.2570345 0.3827758 150 150 150 255 
-0.4047 -0.1338999 -2.6957 0.8576537 0.3108571 -0.4096315 150 150 150 255 
-0.4047 -0.3035999 -2.6957 0.9255343 -0.2219537 -0.3067944 150 150 150 255 
-0.4236 -0.2253998 -3.9957 0.9236302 0.04245285 0.3809265 150 150 150 255 
-0.4236 -0.2847998 -3.9957 0.7898862 -0.2258398 0.5701544 150 150 150 255 
-0.7024999 -0.1338999 -2.6957 -0.9253365 0.2220722 -0.3073051 150 150 150 255 
-0.6835999 -0.1527998 -3.9957 -0.7898939 0.2258371 0.5701449 150 150 150 255 
-0.6835999 -0.2277998 -3.9957 -0.9228311 -0.04711147 0.3823131 150 150 150 255 
-0.6835999 -0.2847998 -3.9957 -0.8854564 -0.2619934 0.3838313 150 150 150 255 
-0.7024999 -0.3035999 -2.6957 -0.8577129 -0.310505 -0.4097747 150 150 150 255 
-0.5569999 0.06670018 -4.1388 -0.01296906 0.9521171 0.3054585 150 150 150 255 
-0.7731999 0.0008001809 -4.1388 -0.4907842 0.8098908 0.3212597 150 150 150 255 
-0.7214999 -0.05089983 -4.0306 -0.4652995 0.4280185 0.7747881 150 150 150 255 
-0.2681 -0.2261998 -4.1388 0.9523193 0.005258895 0.305058 150 150 150 255 
-0.334 0.0008001809 -4.1388 0.8138102 0.4846685 0.3206392 150 150 150 255 
-0.3857 -0.05089983 -4.0306 0.4293512 0.4642451 0.7746832 150 150 150 255 
-0.5569999 -0.5042998 -4.1388 0.008053522 -0.952233 0.3052664 150 150 150 255 
-0.334 -0.4383998 -4.1388 0.4816832 -0.8157819 0.320127 150 150 150 255 
-0.3857 -0.3866998 -4.0306 0.46206 -0.4320904 0.7744666 150 150 150 255 
-0.8390999 -0.2277998 -4.1388 -0.9519856 -0.01712392 0.3056635 150 150 150 255 
-0.7731999 -0.4383998 -4.1388 -0.8116747 -0.4882732 0.3205831 150 150 150 255 
-0.7214999 -0.3866998 -4.0306 -0.4310488 -0.4628938 0.7745491 150 150 150 255 
-0.5569999 -0.004499813 -4.2819 -0.02508735 0.8044667 -0.5934677 150 150 150 255 
-0.7678999 -0.004499813 -4.2819 -0.6058215 0.6135504 -0.506494 150 150 150 255 
-0.3393 -0.2269998 -4.2819 0.8045061 0.0238572 -0.5934651 150 150 150 255 
-0.3393 -0.004499813 -4.2819 0.6158394 0.6029105 -0.5071892 150 150 150 255 
-0.5569999 -0.4330998 -4.2819 0.02432859 -0.8043689 -0.593632 150 150 150 255 
-0.3393 -0.4330998 -4.2819 0.602161 -0.6173508 -0.5062413 150 150 150 255 
-0.7678999 -0.2277998 -4.2819 -0.804425 -0.02574903 -0.5934959 150 150 150 255 
-0.7678999 -0.4330998 -4.2819 -0.6150292 -0.6051642 -0.5054854 150 150 150 255 
-0.7311 -0.04129988 -2.6461 -0.6022125 0.6019796 -0.5243669 150 150 150 255 
-0.6447999 -0.006499887 -2.5857 -0.3337906 0.9285805 -0.1622412 150 150 150 255 
-0.4624 -0.006499887 -2.5857 0.3000816 0.9539053 0.003959666 150 150 150 255 
-0.3762 -0.04129988 -2.6461 0.6026244 0.6019303 -0.5239503 150 150 150 255 
-0.7311 -0.3961999 -2.6461 -0.602322 -0.6020367 -0.5241758 150 150 150 255 
-0.7657999 -0.3099999 -2.5857 -0.7871139 -0.5476463 -0.2837872 150 150 150 255 
-0.7657999 -0.1274999 -2.5857 -0.6609228 0.5589933 -0.5007071 150 150 150 255 
-0.3762 -0.3961999 -2.6461 0.6028805 -0.6020972 -0.5234635 150 150 150 255 
-0.4624 -0.4309999 -2.5857 0.3340732 -0.9285219 -0.1619948 150 150 150 255 
-0.6447999 -0.4309999 -2.5857 -0.2996628 -0.9540372 0.003904583 150 150 150 255 
-0.3416 -0.1275999 -2.5857 0.7877987 0.5470058 -0.2831217 150 150 150 255 
-0.3416 -0.3099999 -2.5857 0.6613523 -0.5587263 -0.500438 150 150 150 255 
-0.6447999 -0.0064999 -2.2931 0.06698186 0.4546871 0.888129 150 150 150 255 
-0.4624 -0.0064999 -2.2931 0.3691299 0.2736537 0.8881761 150 150 150 255 
-0.4624 -0.4309999 -2.2931 -0.06702179 -0.4545836 0.8881789 150 150 150 255 
-0.6447999 -0.4309999 -2.2931 -0.3687095 -0.274152 0.888197 150 150 150 255 
-0.3416 -0.1275999 -2.2931 0.1590201 0.173362 0.9719353 150 150 150 255 
-0.7657999 -0.1274999 -2.2931 -0.2534477 0.6333377 0.731196 150 150 150 255 
-0.7657999 -0.3099999 -2.2931 -0.1585124 -0.1733631 0.9720181 150 150 150 255 
-0.3416 -0.3099999 -2.2931 0.2538049 -0.6332319 0.7311638 150 150 150 255 
-0.8543 -0.2671999 -2.5857 0.04829234 -0.9010052 -0.4311119 150 150 150 255 
-0.8543 -0.1703999 -2.5857 -0.007339939 0.8678351 -0.4967982 150 150 150 255 
-0.8543 -0.2671999 -2.3461 -0.1304794 -0.8748221 0.4665421 150 150 150 255 
-0.8543 -0.1703999 -2.3461 -0.07489767 0.9124038 0.4023801 150 150 150 255 
-1.2948 -0.2671999 -2.3461 -0.04241671 -0.9308137 0.3630244 150 150 150 255 
-1.2948 -0.2671999 -2.403 -0.03699844 -0.9992666 -0.009873783 150 150 150 255 
-1.2948 -0.2671999 -2.4589 -0.03352115 -0.999438 -4.368682e-08 150 150 150 255 
-1.2948 -0.2671999 -2.5205 -0.03191683 -0.9994034 0.01319895 150 150 150 255 
-1.2948 -0.2671999 -2.5857 -0.07771266 -0.908523 -0.4105445 150 150 150 255 
-1.2948 -0.1703999 -2.5857 0.05205891 0.8805751 -0.4710386 150 150 150 255 
-1.2948 -0.1703999 -2.516 -0.03660548 0.9992779 0.01018395 150 150 150 255 
-1.2948 -0.1703999 -2.4582 -0.03352118 0.999438 4.368682e-08 150 150 150 255 
-1.2948 -0.1703999 -2.4019 -0.0322437 0.9994056 -0.01219514 150 150 150 255 
-1.2948 -0.1703999 -2.3461 0.107411 0.8463288 0.5217188 150 150 150 255 
-1.4286 -0.2671999 -2.7024 0.6523253 -0.6054444 -0.4559703 150 150 150 255 
-1.4295 -0.1703999 -2.7045 0.7575172 0.6054372 -0.244159 150 150 150 255 
-1.6023 -0.2499999 -2.2373 -0.2072535 -0.9753808 0.07535498 150 150 150 255 
-1.6023 -0.2499999 -2.4589 -0.2236172 -0.9746771 -4.260449e-08 150 150 150 255 
-1.4357 -0.1703999 -2.1908 0.7594525 0.5989591 0.2539288 150 150 150 255 
-1.4443 -0.1907999 -2.0126 -0.06344745 0.8652545 0.4973017 150 150 150 255 
-1.4443 -0.2467999 -2.0126 0.4474928 -0.7097393 0.5440775 150 150 150 255 
-1.4314 -0.2671999 -2.2004 0.6768385 -0.5933139 0.4357388 150 150 150 255 
-1.4419 -0.1703999 -2.9403 0.009101396 0.8289219 -0.5592903 150 150 150 255 
-1.6023 -0.1875999 -2.6793 -0.2285372 0.9719587 -0.05538098 150 150 150 255 
-1.6023 -0.2499999 -2.679 -0.2001233 -0.9796235 -0.01698526 150 150 150 255 
-1.4419 -0.2671999 -2.9403 0.1977569 -0.8550382 -0.4793766 150 150 150 255 
-1.6023 -0.1875999 -2.2369 -0.1946229 0.9802161 0.03603104 150 150 150 255 
-1.6023 -0.1875999 -2.459 -0.2236171 0.9746771 4.260449e-08 150 150 150 255 
-1.5419 -0.2187999 -2.8996 -0.673878 0.341816 -0.6550193 150 150 150 255 
-1.6771 -0.2187999 -2.6793 -0.9580513 0.03997037 -0.283796 150 150 150 255 
-1.6771 -0.2187999 -2.4591 -1 2.064411e-07 9.023828e-15 150 150 150 255 
-1.6771 -0.2187999 -2.2373 -0.9445609 -0.01043219 0.3281705 150 150 150 255 
-1.5467 -0.2187999 -2.0521 -0.5958588 -0.3728866 0.7112721 150 150 150 255 
-0.9022999 -0.2187999 -2.2713 0.3401659 -0.3393387 0.8770042 150 150 150 255 
-1.2468 -0.2187999 -2.2713 -0.3401656 0.3393386 0.8770044 150 150 150 255 
-0.9022999 -0.2187999 -2.6605 0.3401659 0.3393387 -0.8770042 150 150 150 255 
-1.2468 -0.2187999 -2.6605 -0.3401656 -0.3393386 -0.8770044 150 150 150 255 
-0.2533 -0.1703999 -2.5857 -0.04819958 0.9010007 -0.4311318 150 150 150 255 
-0.2533 -0.2671999 -2.5857 0.007328049 -0.8678365 -0.4967959 150 150 150 255 
-0.2533 -0.1703999 -2.3461 0.1310878 0.8747613 0.4664855 150 150 150 255 
-0.2533 -0.2671999 -2.3461 0.07510328 -0.9124355 0.4022699 150 150 150 255 
0.1872 -0.1703999 -2.3461 0.04241688 0.9308137 0.3630244 150 150 150 255 
0.1872 -0.1703999 -2.403 0.03699848 0.9992666 -0.009873714 150 150 150 255 
0.1872 -0.1703999 -2.4589 0.03352118 0.999438 4.368682e-08 150 150 150 255 
0.1872 -0.1703999 -2.5205 0.03191686 0.9994034 0.01319905 150 150 150 255 
0.1872 -0.1703999 -2.5857 0.07771292 0.9085231 -0.4105443 150 150 150 255 
0.1872 -0.2671999 -2.5857 -0.05205876 -0.8805752 -0.4710386 150 150 150 255 
0.1872 -0.2671999 -2.516 0.03660545 -0.9992779 0.01018387 150 150 150 255 
0.1872 -0.2671999 -2.4582 0.03352115 -0.999438 -4.368682e-08 150 150 150 255 
0.1872 -0.2671999 -2.4019 0.03224367 -0.9994057 -0.0121952 150 150 150 255 
0.1872 -0.2671999 -2.3461 -0.1074109 -0.8463289 0.5217186 150 150 150 255 
0.321 -0.1703999 -2.7024 -0.6523251 0.6054444 -0.4559704 150 150 150 255 
0.3219 -0.2671999 -2.7045 -0.7575172 -0.605437 -0.244159 150 150 150 255 
0.4947 -0.1875999 -2.2373 0.2067384 0.9755063 0.07514458 150 150 150 255 
0.4947 -0.1875999 -2.4589 0.2230617 0.9748043 4.261005e-08 150 150 150 255 
0.3281 -0.2671999 -2.1908 -0.759509 -0.5990106 0.2536384 150 150 150 255 
0.3366 -0.2467999 -2.0126 0.06383353 -0.86504 0.4976255 150 150 150 255 
0.3366 -0.1907999 -2.0126 -0.4480394 0.7099096 0.5434052 150 150 150 255 
0.3238 -0.1703999 -2.2004 -0.6768885 0.5933408 0.4356244 150 150 150 255 
0.3343 -0.2671999 -2.9403 -0.008767947 -0.8287352 -0.5595723 150 150 150 255 
0.4947 -0.2499999 -2.6793 0.2289692 -0.9718475 -0.05554704 150 150 150 255 
0.4947 -0.1875999 -2.679 0.1997268 0.9797056 -0.01691496 150 150 150 255 
0.3343 -0.1703999 -2.9403 -0.198236 0.8551874 -0.4789123 150 150 150 255 
0.4947 -0.2499999 -2.2369 0.1950312 -0.9801308 0.03614669 150 150 150 255 
0.4947 -0.2499999 -2.459 0.2241715 -0.9745498 -4.259892e-08 150 150 150 255 
0.4343 -0.2186999 -2.8996 0.6741273 -0.3410788 -0.6551471 150 150 150 255 
0.5695 -0.2186999 -2.6793 0.9581591 -0.03876446 -0.2835993 150 150 150 255 
0.5695 -0.2186999 -2.4591 0.9999993 0.001138681 4.977332e-11 150 150 150 255 
0.5695 -0.2186999 -2.2373 0.9444478 0.01169513 0.3284532 150 150 150 255 
0.4391 -0.2186999 -2.0521 0.5953189 0.3737802 0.7112551 150 150 150 255 
-0.2053 -0.2187999 -2.2713 -0.3401659 0.3393386 0.8770043 150 150 150 255 
0.1392 -0.2187999 -2.2713 0.3401659 -0.3393386 0.8770043 150 150 150 255 
-0.2053 -0.2187999 -2.6605 -0.3401659 -0.3393386 -0.8770043 150 150 150 255 
0.1392 -0.2187999 -2.6605 0.3401659 0.3393386 -0.8770043 150 150 150 255 
-0.6033999 -0.3309999 -2.3731 0.1887442 0.3221942 0.9276673 150 150 150 255 
-0.5037999 -0.3309999 -2.3731 -0.1172405 0.4482945 0.886164 150 150 150 255 
-0.4416 -0.2686999 -2.3731 0.1121859 -0.02676439 0.9933267 150 150 150 255 
-0.6657999 -0.2685999 -2.3731 0.1616994 -0.5996743 0.7837373 150 150 150 255 
-0.6033999 -0.1064999 -2.3731 0.1172401 -0.4482947 0.886164 150 150 150 255 
-0.5037999 -0.1064999 -2.3731 -0.1890547 -0.3219747 0.9276803 150 150 150 255 
-0.6657999 -0.1689999 -2.3731 -0.1125272 0.02674347 0.9932887 150 150 150 255 
-0.4416 -0.1688999 -2.3731 -0.1625121 0.5998986 0.7833974 150 150 150 255 
-0.6657999 -0.2685999 -2.2604 -0.6086049 -0.7590207 -0.2312738 150 150 150 255 
-0.6657999 -0.1689999 -2.2604 -0.4584791 0.7585678 -0.4630032 150 150 150 255 
-0.4416 -0.2686999 -2.2604 0.4606499 -0.7587044 -0.4606185 150 150 150 255 
-0.5534999 -0.2685999 -2.2604 -0.0003286112 -0.9999999 0.0003841459 150 150 150 255 
-0.4416 -0.1688999 -2.2604 0.6096722 0.7584288 -0.2304032 150 150 150 255 
-0.5534999 -0.1688999 -2.2604 -0.0003940212 0.9999998 -0.0005783122 150 150 150 255 
-0.2779 -0.2476001 2.4165 0.2014928 -0.9106137 0.3608094 150 150 150 255 
-0.2779 -0.1900001 2.4165 0.2107009 0.9543437 0.2117388 150 150 150 255 
-0.5548999 -0.1900001 2.4165 -0.1561807 0.9370844 0.3122188 150 150 150 255 
-0.5548999 -0.2476001 2.4165 0.1622175 -0.9733052 0.1623657 150 150 150 255 
-1.0824 -0.2685999 -2.0756 -0.4103112 -0.8064073 -0.4258546 150 150 150 255 
-1.0824 -0.1689999 -2.0756 -0.4174467 0.766938 -0.4873854 150 150 150 255 
-0.5536 -0.2685999 -2.1477 -0.0005515246 -0.9983007 0.05827024 150 150 150 255 
-0.0324 -0.2686999 -2.0756 0.4089963 -0.7677681 -0.4932081 150 150 150 255 
-0.0324 -0.1688999 -2.0756 0.4075929 0.8070647 -0.4272174 150 150 150 255 
-0.5536 -0.1688999 -2.1477 0.0003137701 0.9983019 0.05825258 150 150 150 255 
-1.1306 -0.1998999 -2.0419 -0.8152756 0.4215882 -0.396975 150 150 150 255 
-1.1306 -0.2376999 -2.0419 -0.7566057 -0.2265719 -0.613362 150 150 150 255 
-1.176 -0.2195999 -1.9367 -0.8469259 -0.5220378 -0.1009605 150 150 150 255 
-1.176 -0.2179999 -1.9367 -0.8321897 0.5507202 0.06455771 150 150 150 255 
-0.5536999 -0.2475999 -1.9415 0.0009090686 -0.9979874 0.06340664 150 150 150 255 
-1.116 -0.2475999 -1.9415 -0.2128947 -0.9745157 0.070676 150 150 150 255 
0.0014 -0.2475999 -1.9415 0.2347729 -0.9704154 0.05635317 150 150 150 255 
0.016 -0.2376999 -2.0438 0.811677 -0.4232442 -0.402548 150 150 150 255 
0.016 -0.1998999 -2.0438 0.7457501 0.2288662 -0.6256813 150 150 150 255 
0.0615 -0.2179999 -1.9386 0.8465871 0.5225663 -0.1010682 150 150 150 255 
0.0615 -0.2195999 -1.9386 0.832508 -0.5502994 0.06403933 150 150 150 255 
-0.5536999 -0.1899999 -1.9415 -0.001003109 0.997975 0.06360041 150 150 150 255 
0.0014 -0.1899999 -1.9415 0.2136706 0.974335 0.07082602 150 150 150 255 
-1.116 -0.1899999 -1.9415 -0.2347746 0.9704203 0.05626235 150 150 150 255 
-1.0114 -0.2195999 -1.3249 -0.8236502 -0.536437 0.183945 150 150 150 255 
-1.0114 -0.2179999 -1.3249 -0.8303846 0.5371615 0.1480508 150 150 150 255 
-0.5544 -0.2475999 -1.331 0 -1 -4.371139e-08 150 150 150 255 
-0.9516999 -0.2475999 -1.331 -0.2136593 -0.9761632 0.03814523 150 150 150 255 
-0.1623 -0.2475999 -1.331 0.2133766 -0.9758134 0.04752628 150 150 150 255 
-0.1024 -0.2179999 -1.3267 0.8242059 0.5357978 0.1833176 150 150 150 255 
-0.1024 -0.2195999 -1.3267 0.8307542 -0.5367438 0.1474911 150 150 150 255 
-0.5544 -0.1899999 -1.331 0 1 4.371139e-08 150 150 150 255 
-0.1623 -0.1899999 -1.331 0.2141557 0.9760566 0.03808894 150 150 150 255 
-0.9516999 -0.1899999 -1.331 -0.2126253 0.9759768 0.04753719 150 150 150 255 
-0.9183999 -0.2196 -0.6306 -0.8398646 -0.5376248 0.07474726 150 150 150 255 
-0.9183999 -0.218 -0.6306 -0.8425182 0.5373704 0.03736649 150 150 150 255 
-0.5547999 -0.2476 -0.6367 0 -1 -4.371139e-08 150 150 150 255 
-0.8586999 -0.2476 -0.6367 -0.2166096 -0.9762112 0.009589397 150 150 150 255 
-0.2548 -0.2476 -0.6367 0.2157793 -0.9762551 0.01911289 150 150 150 255 
-0.195 -0.218 -0.6325 0.8399461 0.5375383 0.07445196 150 150 150 255 
-0.195 -0.2196 -0.6325 0.842499 -0.5374094 0.03723758 150 150 150 255 
-0.5547999 -0.19 -0.6367 0 1 4.371139e-08 150 150 150 255 
-0.2548 -0.19 -0.6367 0.2165625 0.976222 0.009558388 150 150 150 255 
-0.8586999 -0.19 -0.6367 -0.2156766 0.9762765 0.01917763 150 150 150 255 
-0.9183999 -0.2196001 0.9688 -0.8427555 -0.535818 -0.05159727 150 150 150 255 
-0.9183999 -0.218 0.9688 -0.8392802 0.5338455 -0.1030428 150 150 150 255 
-0.5547999 -0.2476 0.9627 0 -1 -4.371139e-08 150 150 150 255 
-0.8586999 -0.2476 0.9627 -0.2196032 -0.9752116 -0.02714539 150 150 150 255 
-0.2548 -0.2476 0.9627 0.2179094 -0.9758767 -0.01342006 150 150 150 255 
-0.195 -0.218 0.967 0.8423994 0.5364059 -0.05130288 150 150 150 255 
-0.195 -0.2196001 0.967 0.838754 -0.5347811 -0.1024739 150 150 150 255 
-0.5547999 -0.19 0.9627 0 1 4.371139e-08 150 150 150 255 
-0.2548 -0.19 0.9627 0.218552 0.9754558 -0.02685107 150 150 150 255 
-0.8586999 -0.19 0.9627 -0.2185825 0.9757242 -0.0135655 150 150 150 255 
-1.0048 -0.2196001 1.4367 -0.8400759 -0.5347853 -0.09097949 150 150 150 255 
-1.0048 -0.2180001 1.4367 -0.8431739 0.5369526 -0.02719908 150 150 150 255 
-0.5544999 -0.2476001 1.4306 0 -1 -4.371139e-08 150 150 150 255 
-0.9450999 -0.2476001 1.4306 -0.2180307 -0.9759148 -0.007281167 150 150 150 255 
-0.1688 -0.2476001 1.4306 0.2183736 -0.9755769 -0.02372322 150 150 150 255 
-0.109 -0.2180001 1.4348 0.8395852 0.5356369 -0.09049758 150 150 150 255 
-0.109 -0.2196001 1.4348 0.8428342 -0.5374914 -0.02708469 150 150 150 255 
-0.5544999 -0.1900001 1.4306 0 1 4.371139e-08 150 150 150 255 
-0.1688 -0.1900001 1.4306 0.2174051 0.9760551 -0.007178265 150 150 150 255 
-0.9450999 -0.1900001 1.4306 -0.2193377 0.9753537 -0.02400256 150 150 150 255 
-0.9804 -0.2196001 1.998 -0.8392907 -0.5377845 0.07986777 150 150 150 255 
-0.9804 -0.2180001 1.998 -0.8341606 0.537627 0.1230179 150 150 150 255 
-0.5545999 -0.2476001 1.9919 0 -1 -4.371139e-08 150 150 150 255 
-0.9207 -0.2476001 1.9919 -0.2143645 -0.9762416 0.03162599 150 150 150 255 
-0.1931 -0.2476001 1.9919 0.2155526 -0.9762779 0.02045893 150 150 150 255 
-0.1332 -0.2180001 1.9962 0.8393549 0.5377457 0.07945508 150 150 150 255 
-0.1332 -0.2196001 1.9962 0.7630858 -0.6385248 0.09993119 150 150 150 255 
-0.5545999 -0.1900001 1.9919 0 1 4.371139e-08 150 150 150 255 
-0.1931 -0.1900001 1.9919 0.2156675 0.9759432 0.03197673 150 150 150 255 
-0.9207 -0.1900001 1.9919 -0.2155279 0.976282 0.02052241 150 150 150 255 
-0.8952999 -0.2196001 2.4226 -0.825816 -0.5373093 0.1712505 150 150 150 255 
-0.8952999 -0.2180001 2.4226 -0.8264895 0.5343568 0.1771381 150 150 150 255 
-0.8356 -0.2476001 2.4165 -0.2128472 -0.9760198 0.04562311 150 150 150 255 
-0.2167 -0.2188001 2.4174 0.9787694 0.01027598 0.2047071 150 150 150 255 
-0.8356 -0.1900001 2.4165 -0.2130059 0.9760519 0.04417197 150 150 150 255 
-0.5551999 -0.1900001 2.745 0.1961682 0.9803839 0.01911438 150 150 150 255 
-0.5551999 -0.2476001 2.745 -0.1961915 -0.9803109 0.0223476 150 150 150 255 
-0.7628999 -0.1900001 2.745 -0.2103705 0.9749076 0.0727971 150 150 150 255 
-0.8227 -0.2196001 2.7506 -0.8037661 -0.5408366 0.2479029 150 150 150 255 
-0.8227 -0.2180001 2.7507 -0.8021396 0.526813 0.2811408 150 150 150 255 
-0.7628999 -0.2476001 2.745 -0.2089677 -0.9737707 0.09001698 150 150 150 255 
-0.3501 -0.2476001 2.745 0.2080779 -0.9752592 0.07465287 150 150 150 255 
-0.2927 -0.2180001 2.7623 0.7205196 0.6498818 0.2418785 150 150 150 255 
-0.2926 -0.2196001 2.7622 0.8028873 -0.5226458 0.2867287 150 150 150 255 
-0.3501 -0.1900001 2.745 0.2043132 0.9752594 0.08441179 150 150 150 255 
-0.5581999 -0.2163001 3.2893 -0.0215931 0.001511207 0.9997657 150 150 150 255 
3 0 1 2 
3 0 2 3 
3 2 4 3 
3 5 6 7 
3 5 7 8 
3 8 7 9 
3 10 11 12 
3 10 12 13 
3 14 10 13 
3 14 13 15 
3 15 16 17 
3 15 17 14 
3 18 19 20 
3 18 20 21 
3 20 22 21 
3 23 24 25 
3 23 25 26 
3 23 26 27 
3 0 3 28 
3 0 28 29 
3 30 0 29 
3 18 21 31 
3 18 31 32 
3 33 18 32 
3 6 5 34 
3 6 34 35 
3 36 6 35 
3 26 25 37 
3 26 37 38 
3 39 26 38 
3 28 40 41 
3 28 41 29 
3 31 42 43 
3 31 43 32 
3 34 44 45 
3 34 45 35 
3 37 46 47 
3 37 47 38 
3 40 10 14 
3 14 41 40 
3 42 12 11 
3 11 43 42 
3 44 15 13 
3 13 45 44 
3 46 17 16 
3 16 47 46 
3 2 1 48 
3 2 48 49 
3 49 50 51 
3 49 51 2 
3 23 27 52 
3 23 52 53 
3 53 54 48 
3 23 53 48 
3 9 7 55 
3 9 55 56 
3 56 57 52 
3 9 56 52 
3 20 19 51 
3 20 51 58 
3 20 58 55 
3 58 59 55 
3 0 30 24 
3 4 18 33 
3 23 48 1 
3 2 51 19 
3 26 39 8 
3 22 6 36 
3 27 9 52 
3 20 55 7 
3 0 24 23 
3 23 1 0 
3 2 19 18 
3 18 4 2 
3 6 22 20 
3 20 7 6 
3 9 27 26 
3 26 8 9 
3 50 49 60 
3 50 60 61 
3 57 56 62 
3 57 62 63 
3 50 58 51 
3 49 48 54 
3 53 52 57 
3 59 56 55 
3 58 50 61 
3 61 64 58 
3 49 54 65 
3 49 65 60 
3 53 57 63 
3 63 66 53 
3 56 59 67 
3 67 62 56 
3 54 53 68 
3 68 69 54 
3 53 66 70 
3 70 68 53 
3 66 65 71 
3 71 70 66 
3 65 54 69 
3 69 71 65 
3 68 70 72 
3 68 72 73 
3 68 73 74 
3 68 74 75 
3 68 75 76 
3 71 69 77 
3 71 77 78 
3 71 78 79 
3 71 79 80 
3 71 80 81 
3 77 76 82 
3 82 83 77 
3 73 84 85 
3 73 85 74 
3 86 87 88 
3 86 88 89 
3 83 90 91 
3 77 83 91 
3 77 91 78 
3 92 93 82 
3 92 82 76 
3 92 76 75 
3 94 80 79 
3 94 79 95 
3 89 88 84 
3 72 89 84 
3 72 84 73 
3 74 85 92 
3 74 92 75 
3 94 87 86 
3 94 86 81 
3 94 81 80 
3 95 79 78 
3 95 78 91 
3 93 90 83 
3 83 82 93 
3 89 72 81 
3 81 86 89 
3 90 93 96 
3 93 92 97 
3 93 97 96 
3 92 85 98 
3 92 98 97 
3 85 84 99 
3 85 99 98 
3 84 88 100 
3 84 100 99 
3 88 87 100 
3 87 94 99 
3 99 100 87 
3 94 95 98 
3 98 99 94 
3 95 91 97 
3 97 98 95 
3 91 90 96 
3 96 97 91 
3 70 71 101 
3 71 81 102 
3 102 101 71 
3 81 72 102 
3 72 70 101 
3 101 102 72 
3 69 68 103 
3 68 76 104 
3 104 103 68 
3 76 77 104 
3 77 69 103 
3 103 104 77 
3 59 58 105 
3 105 106 59 
3 58 64 107 
3 107 105 58 
3 64 67 108 
3 108 107 64 
3 67 59 106 
3 106 108 67 
3 105 107 109 
3 105 109 110 
3 105 110 111 
3 105 111 112 
3 105 112 113 
3 108 106 114 
3 108 114 115 
3 108 115 116 
3 108 116 117 
3 108 117 118 
3 114 113 119 
3 119 120 114 
3 110 121 122 
3 110 122 111 
3 123 124 125 
3 123 125 126 
3 120 127 128 
3 114 120 128 
3 114 128 115 
3 129 130 119 
3 129 119 113 
3 129 113 112 
3 131 117 116 
3 131 116 132 
3 126 125 121 
3 109 126 121 
3 109 121 110 
3 111 122 129 
3 111 129 112 
3 131 124 123 
3 131 123 118 
3 131 118 117 
3 132 116 115 
3 132 115 128 
3 130 127 120 
3 120 119 130 
3 126 109 118 
3 118 123 126 
3 127 130 133 
3 130 129 134 
3 130 134 133 
3 129 122 135 
3 129 135 134 
3 122 121 136 
3 122 136 135 
3 121 125 137 
3 121 137 136 
3 125 124 137 
3 124 131 136 
3 136 137 124 
3 131 132 135 
3 135 136 131 
3 132 128 134 
3 134 135 132 
3 128 127 133 
3 133 134 128 
3 107 108 138 
3 108 118 139 
3 139 138 108 
3 118 109 139 
3 109 107 138 
3 138 139 109 
3 106 105 140 
3 105 113 141 
3 141 140 105 
3 113 114 141 
3 114 106 140 
3 140 141 114 
3 142 143 144 
3 142 144 145 
3 61 60 146 
3 146 147 61 
3 60 65 148 
3 148 146 60 
3 65 66 145 
3 145 148 65 
3 66 63 142 
3 142 145 66 
3 63 62 143 
3 143 142 63 
3 62 67 144 
3 144 143 62 
3 67 64 149 
3 149 144 67 
3 64 61 147 
3 147 149 64 
3 147 146 148 
3 147 148 149 
3 148 145 150 
3 150 151 148 
3 145 144 152 
3 145 152 153 
3 145 153 150 
3 144 149 154 
3 154 152 144 
3 149 148 151 
3 149 151 155 
3 149 155 154 
3 156 157 158 
3 156 158 159 
3 151 150 160 
3 160 161 151 
3 150 153 162 
3 162 160 150 
3 153 152 163 
3 153 163 162 
3 152 154 164 
3 164 163 152 
3 154 155 165 
3 165 164 154 
3 155 151 161 
3 161 165 155 
3 166 167 168 
3 166 168 169 
3 160 162 170 
3 170 171 160 
3 162 163 172 
3 162 172 170 
3 173 174 175 
3 173 175 176 
3 164 165 177 
3 177 178 164 
3 165 161 179 
3 165 179 177 
3 169 168 180 
3 169 180 181 
3 171 170 182 
3 171 182 183 
3 170 172 184 
3 170 184 182 
3 176 175 185 
3 176 185 186 
3 178 177 187 
3 178 187 188 
3 177 179 189 
3 177 189 187 
3 181 180 190 
3 181 190 191 
3 183 182 192 
3 183 192 193 
3 182 184 194 
3 182 194 192 
3 186 185 195 
3 186 195 196 
3 188 187 197 
3 188 197 198 
3 187 189 199 
3 187 199 197 
3 191 190 200 
3 191 200 201 
3 193 192 202 
3 193 202 203 
3 192 194 204 
3 192 204 202 
3 196 195 205 
3 196 205 206 
3 198 197 207 
3 198 207 208 
3 197 199 209 
3 197 209 207 
3 201 200 210 
3 201 210 211 
3 203 202 212 
3 203 212 213 
3 202 204 214 
3 202 214 212 
3 206 205 215 
3 206 215 216 
3 208 207 217 
3 208 217 218 
3 207 209 219 
3 207 219 217 
3 211 210 220 
3 211 220 221 
3 213 212 222 
3 213 222 223 
3 212 214 224 
3 212 224 222 
3 216 215 225 
3 216 225 226 
3 218 217 227 
3 218 227 228 
3 217 219 229 
3 217 229 227 
3 221 220 230 
3 221 230 231 
3 223 222 159 
3 159 232 223 
3 222 224 156 
3 156 159 222 
3 226 225 233 
3 228 227 158 
3 158 157 228 
3 227 229 234 
3 227 234 158 
3 159 158 235 
3 235 236 159 
3 158 234 237 
3 237 235 158 
3 231 230 238 
3 231 238 239 
3 232 159 236 
3 236 240 232 
3 159 156 241 
3 159 241 236 
3 233 242 243 
3 157 158 235 
3 157 235 244 
3 158 159 236 
3 236 235 158 
3 235 237 245 
3 239 238 245 
3 240 236 245 
3 236 241 245 
3 243 242 245 
3 244 235 245 
3 161 160 167 
3 167 166 161 
3 160 171 168 
3 168 167 160 
3 171 183 180 
3 180 168 171 
3 183 193 190 
3 190 180 183 
3 193 203 200 
3 200 190 193 
3 203 213 210 
3 210 200 203 
3 213 223 220 
3 220 210 213 
3 223 232 230 
3 230 220 223 
3 232 240 238 
3 238 230 232 
3 240 245 238 
3 237 239 245 
3 237 234 231 
3 231 239 237 
3 234 229 221 
3 221 231 234 
3 229 219 211 
3 211 221 229 
3 219 209 201 
3 201 211 219 
3 209 199 191 
3 191 201 209 
3 199 189 181 
3 181 191 199 
3 189 179 169 
3 169 181 189 
3 179 161 166 
3 166 169 179 
3 163 164 174 
3 174 173 163 
3 164 178 175 
3 175 174 164 
3 178 188 185 
3 185 175 178 
3 188 198 195 
3 195 185 188 
3 198 208 205 
3 205 195 198 
3 208 218 215 
3 215 205 208 
3 218 228 225 
3 225 215 218 
3 228 157 233 
3 233 225 228 
3 156 224 226 
3 226 233 156 
3 224 214 216 
3 216 226 224 
3 214 204 206 
3 206 216 214 
3 204 194 196 
3 196 206 204 
3 194 184 186 
3 186 196 194 
3 184 172 176 
3 176 186 184 
3 172 163 173 
3 173 176 172 
3 157 244 242 
3 242 233 157 
3 244 245 242 
3 245 241 243 
3 241 156 233 
3 233 243 241 
3 39 38 34 
3 8 39 34 
3 8 34 5 
3 34 38 47 
3 47 44 34 
3 44 47 16 
3 16 15 44 
3 33 32 28 
3 4 33 28 
3 4 28 3 
3 28 32 43 
3 43 40 28 
3 40 43 11 
3 11 10 40 
3 30 29 37 
3 24 30 37 
3 24 37 25 
3 37 29 41 
3 41 46 37 
3 46 41 14 
3 14 17 46 
3 36 35 31 
3 22 36 31 
3 22 31 21 
3 31 35 45 
3 45 42 31 
3 42 45 13 
3 13 12 42 
