ply
format ascii 1.0
comment VCGLIB generated
element vertex 291
property float x
property float y
property float z
property float nx
property float ny
property float nz
property uchar red
property uchar green
property uchar blue
property uchar alpha
element face 502
property list uchar int vertex_indices
end_header
0 -30.06944 22.73224 0 -0.9042387 0.4270275 150 150 150 255 
31.584 -30.06944 22.73224 0.6060172 -0.5033317 0.6159549 150 150 150 255 
31.584 -30.06944 0 0.4052756 -0.9141946 0 150 150 150 255 
26.51184 27.28984 22.73224 -0.1600558 0.7801828 0.6047288 150 150 150 255 
31.802 27.28984 0 0.3901713 0.9207423 0 150 150 150 255 
41.58896 4.61296 30.74016 0.7210358 -0.04079727 0.6916958 150 150 150 255 
37.37672 10.68496 26.73616 0.4133455 0.7957541 0.4426296 150 150 150 255 
0 0.04952 26.73616 0 -0.9273313 0.3742414 150 150 150 255 
38.54792 0.04952 26.73616 0.3694204 -0.8693719 0.328209 150 150 150 255 
38.54792 0.04952 0 0.4421496 -0.8969414 0 150 150 150 255 
36.34608 11.17008 25.992 0.5140408 0.7697769 0.3784252 150 150 150 255 
36.34608 11.17008 0 0.8530706 0.5217957 0 150 150 150 255 
37.92672 -0.07944 25.91896 0.297597 -0.9124997 0.2806787 150 150 150 255 
32.82928 25.55656 23.7608 0.6814702 0.2950683 0.6697263 150 150 150 255 
31.802 27.28984 17.442 0.6235264 0.7170492 -0.3115373 150 150 150 255 
28.8792 29.86 22.646 -0.819416 0.5724837 0.02863421 150 150 150 255 
32.03792 28.99336 23.16032 0.4458852 0.3096669 0.8398172 150 150 150 255 
31.52432 29.86 20.00096 0.5785094 0.5852412 -0.5681722 150 150 150 255 
29.97056 33.1708 22.43168 0.0916737 0.9360615 0.3396834 150 150 150 255 
31.584 -30.06944 -22.73224 0.6060172 -0.5033317 -0.6159549 150 150 150 255 
26.51184 27.28984 -22.73224 -0.1600558 0.7801828 -0.6047288 150 150 150 255 
31.802 27.28984 -17.442 0.6235264 0.7170492 0.3115373 150 150 150 255 
37.92672 -0.07944 -25.91896 0.297597 -0.9124997 -0.2806787 150 150 150 255 
41.58896 4.61296 -30.74016 0.7210358 -0.04079727 -0.6916958 150 150 150 255 
37.37672 10.68496 -26.73616 0.4133455 0.7957541 -0.4426296 150 150 150 255 
37.92672 -0.07944 0 0.8403991 -0.5419681 0 150 150 150 255 
41.58896 4.61296 0 0.9999564 0.009341283 0 150 150 150 255 
37.37672 10.68496 0 0.5752415 0.8179837 0 150 150 150 255 
36.34608 11.17008 -25.992 0.5140408 0.7697769 -0.3784252 150 150 150 255 
38.54792 0.04952 -26.73616 0.3694204 -0.8693719 -0.328209 150 150 150 255 
32.82928 25.55656 -23.7608 0.6814702 0.2950683 -0.6697263 150 150 150 255 
32.03792 28.99336 -23.16032 0.4458852 0.3096669 -0.8398172 150 150 150 255 
28.8792 29.86 -22.646 -0.819416 0.5724837 -0.02863421 150 150 150 255 
31.52432 29.86 -20.00096 0.5785094 0.5852412 0.5681722 150 150 150 255 
29.97056 33.1708 -22.43168 0.0916737 0.9360615 -0.3396834 150 150 150 255 
0 -30.06944 0 0 -1 0 150 150 150 255 
0 -0.07944 25.91896 0 -0.4880095 0.8728383 150 150 150 255 
0 4.61296 30.74016 0 -0.06855778 0.9976472 150 150 150 255 
0 27.28984 -22.73224 0 0.7834201 -0.6214925 150 150 150 255 
0 4.61296 -30.74016 0 -0.06855778 -0.9976472 150 150 150 255 
0 10.68496 -26.73616 0 0.7560409 -0.6545244 150 150 150 255 
0 11.17008 -25.992 0 0.3834757 -0.923551 150 150 150 255 
4.34512 -1.2804 30.62336 0.3895676 -0.5733323 0.7207824 150 150 150 255 
5.28144 -1.80448 24.28872 0.7071068 -0.7071068 0 150 150 150 255 
0 16.34472 30.39248 0 0.4621554 0.886799 150 150 150 255 
1.36744 16.34472 30.39248 0.1145832 0.6889104 0.7157326 150 150 150 255 
2.58648 17.73992 24.28872 0.2327665 0.9725327 0 150 150 150 255 
5.28144 4.64984 30.6852 0.856626 -0.3180972 0.4062093 150 150 150 255 
5.28144 4.41064 24.28872 0.9227452 -0.3853078 0.00890752 150 150 150 255 
7.26472 11.95504 30.39248 0.5056933 0.2965932 0.8101277 150 150 150 255 
8.48384 12.85384 24.28872 0.9468389 0.3217082 0 150 150 150 255 
9.12464 8.30104 28.2392 0.9103335 -0.3213787 0.2607848 150 150 150 255 
9.12464 8.30104 24.28872 0.947407 -0.319899 0.009198306 150 150 150 255 
0 9.21208 31.33056 3.74897e-09 0.03258595 0.999469 150 150 150 255 
4.51304 14.83008 30.39248 0.2800377 0.4479429 0.8490737 150 150 150 255 
5.59888 16.21032 24.28872 0.6173126 0.786718 0 150 150 150 255 
5.28144 -1.80448 28.78056 0.6496565 -0.7284223 0.2175947 150 150 150 255 
2.58648 17.73992 28.2392 0.2467533 0.9278193 0.2797574 150 150 150 255 
4.36696 4.61144 31.07328 0.3818203 -0.1874631 0.9050253 150 150 150 255 
8.48384 12.85384 28.2392 0.8661962 0.4041967 0.2938183 150 150 150 255 
7.91016 8.08448 30.39248 0.5171659 -0.03049626 0.8553417 150 150 150 255 
5.59888 16.21032 28.2392 0.5864488 0.7085632 0.3924489 150 150 150 255 
0 -1.80448 28.82944 0 -0.9830408 0.183387 150 150 150 255 
0 -1.80448 24.28872 0 -1 0 150 150 150 255 
0 5.57032 31.33056 -1.871955e-09 -0.02090713 0.9997814 150 150 150 255 
0 17.73992 24.28872 0 1 0 150 150 150 255 
-31.584 -30.06944 0 -0.4052756 -0.9141946 0 150 150 150 255 
-31.584 -30.06944 22.73224 -0.6060172 -0.5033317 0.6159549 150 150 150 255 
-26.51184 27.28984 22.73224 0.1600558 0.7801828 0.6047288 150 150 150 255 
-31.802 27.28984 17.442 -0.6235264 0.7170492 -0.3115373 150 150 150 255 
-31.802 27.28984 0 -0.3901713 0.9207423 0 150 150 150 255 
0 27.28984 0 0 1 0 150 150 150 255 
0 27.28984 22.73224 0 0.7834201 0.6214925 150 150 150 255 
-37.92672 -0.07944 25.91896 -0.297597 -0.9124997 0.2806787 150 150 150 255 
-41.58896 4.61296 30.74016 -0.7210358 -0.04079727 0.6916958 150 150 150 255 
-37.37672 10.68496 26.73616 -0.4133455 0.7957541 0.4426296 150 150 150 255 
0 10.68496 26.73616 0 0.7560409 0.6545244 150 150 150 255 
-37.92672 -0.07944 0 -0.8403991 -0.5419681 0 150 150 150 255 
-41.58896 4.61296 0 -0.9999564 0.009341283 0 150 150 150 255 
-37.37672 10.68496 0 -0.5752415 0.8179837 0 150 150 150 255 
-36.34608 11.17008 25.992 -0.5140408 0.7697769 0.3784252 150 150 150 255 
0 11.17008 25.992 0 0.3834757 0.923551 150 150 150 255 
-36.34608 11.17008 0 -0.8530706 0.5217957 0 150 150 150 255 
-38.54792 0.04952 26.73616 -0.3694204 -0.8693719 0.328209 150 150 150 255 
-38.54792 0.04952 0 -0.4421496 -0.8969414 0 150 150 150 255 
-32.82928 25.55656 23.7608 -0.6814702 0.2950683 0.6697263 150 150 150 255 
-32.03792 28.99336 23.16032 -0.4458852 0.3096669 0.8398172 150 150 150 255 
-28.8792 29.86 22.646 0.819416 0.5724837 0.02863421 150 150 150 255 
-31.52432 29.86 20.00096 -0.5785094 0.5852412 -0.5681722 150 150 150 255 
-29.97056 33.1708 22.43168 -0.0916737 0.9360615 0.3396834 150 150 150 255 
0 -30.06944 -22.73224 0 -0.9042387 -0.4270275 150 150 150 255 
-31.584 -30.06944 -22.73224 -0.6060172 -0.5033317 -0.6159549 150 150 150 255 
-31.802 27.28984 -17.442 -0.6235264 0.7170492 0.3115373 150 150 150 255 
-26.51184 27.28984 -22.73224 0.1600558 0.7801828 -0.6047288 150 150 150 255 
0 -0.07944 -25.91896 0 -0.4880095 -0.8728383 150 150 150 255 
-37.92672 -0.07944 -25.91896 -0.297597 -0.9124997 -0.2806787 150 150 150 255 
-37.37672 10.68496 -26.73616 -0.4133455 0.7957541 -0.4426296 150 150 150 255 
-41.58896 4.61296 -30.74016 -0.7210358 -0.04079727 -0.6916958 150 150 150 255 
-36.34608 11.17008 -25.992 -0.5140408 0.7697769 -0.3784252 150 150 150 255 
-38.54792 0.04952 -26.73616 -0.3694204 -0.8693719 -0.328209 150 150 150 255 
0 0.04952 -26.73616 0 -0.9273313 -0.3742414 150 150 150 255 
-32.82928 25.55656 -23.7608 -0.6814702 0.2950683 -0.6697263 150 150 150 255 
-28.8792 29.86 -22.646 0.819416 0.5724837 -0.02863421 150 150 150 255 
-32.03792 28.99336 -23.16032 -0.4458852 0.3096669 -0.8398172 150 150 150 255 
-31.52432 29.86 -20.00096 -0.5785094 0.5852412 0.5681722 150 150 150 255 
-29.97056 33.1708 -22.43168 -0.0916737 0.9360615 -0.3396834 150 150 150 255 
-5.28144 -1.80448 24.28872 -0.7071068 -0.7071068 0 150 150 150 255 
-5.28144 -1.80448 28.78056 -0.6496565 -0.7284223 0.2175947 150 150 150 255 
-1.36744 16.34472 30.39248 -0.1145832 0.6889104 0.7157326 150 150 150 255 
-2.58648 17.73992 28.2392 -0.2467533 0.9278193 0.2797574 150 150 150 255 
0 17.73992 28.27952 0 0.9250889 0.3797508 150 150 150 255 
0 -1.2804 30.6956 -1.379447e-10 -0.4470246 0.8945217 150 150 150 255 
-4.34512 -1.2804 30.62336 -0.3895676 -0.5733323 0.7207824 150 150 150 255 
-4.36696 4.61144 31.07328 -0.3818203 -0.1874631 0.9050253 150 150 150 255 
-7.91016 8.08448 30.39248 -0.5171659 -0.03049626 0.8553417 150 150 150 255 
-5.28144 4.41064 24.28872 -0.9227452 -0.3853078 0.00890752 150 150 150 255 
-5.28144 4.64984 30.6852 -0.856626 -0.3180972 0.4062093 150 150 150 255 
-9.12464 8.30104 24.28872 -0.947407 -0.319899 0.009198306 150 150 150 255 
-9.12464 8.30104 28.2392 -0.9103335 -0.3213787 0.2607848 150 150 150 255 
-7.26472 11.95504 30.39248 -0.5056933 0.2965932 0.8101277 150 150 150 255 
-4.51304 14.83008 30.39248 -0.2800377 0.4479429 0.8490737 150 150 150 255 
0 12.85384 31.33056 9.422285e-10 0.09841333 0.9951457 150 150 150 255 
-5.59888 16.21032 24.28872 -0.6173126 0.786718 0 150 150 150 255 
-5.59888 16.21032 28.2392 -0.5864488 0.7085632 0.3924489 150 150 150 255 
-8.48384 12.85384 28.2392 -0.8661962 0.4041967 0.2938183 150 150 150 255 
-8.48384 12.85384 24.28872 -0.9468389 0.3217082 0 150 150 150 255 
-2.58648 17.73992 24.28872 -0.2327665 0.9725327 0 150 150 150 255 
4.14832 -30.66424 23.2672 0.7091094 -0.5258328 0.4697487 150 150 150 255 
4.14824 27.90904 23.23872 0.8878491 0.3577036 0.2894341 150 150 150 255 
4.14832 -0.164 26.71448 0.8944272 -0.05022641 0.4443842 150 150 150 255 
4.14832 11.32864 26.77616 0.4472139 0.1866285 0.8747397 150 150 150 255 
-4.14832 -30.66424 23.2672 -0.8954379 -0.3320014 0.2965909 150 150 150 255 
-4.14824 27.90904 23.23872 -0.6943171 0.5594608 0.4526892 150 150 150 255 
-4.14832 -0.164 26.71448 -0.4472136 -0.1004528 0.8887684 150 150 150 255 
-4.14832 11.32864 26.77616 -0.8944278 0.09331717 0.4373681 150 150 150 255 
4.14832 -30.66424 -23.2672 0.7892213 -0.3221652 -0.5228187 150 150 150 255 
4.14824 27.90904 -23.23872 0.7789021 0.5734431 -0.2539186 150 150 150 255 
4.14832 -0.164 -26.71448 0.7071068 -0.07941492 -0.7026331 150 150 150 255 
4.14832 11.32864 -26.77616 0.7071074 0.1475443 -0.6915417 150 150 150 255 
-4.14832 -30.66424 -23.2672 -0.7892213 -0.5556933 -0.2614094 150 150 150 255 
-4.14824 27.90904 -23.23872 -0.7789024 0.3679841 -0.5078375 150 150 150 255 
-4.14832 -0.164 -26.71448 -0.7071068 -0.07941492 -0.7026331 150 150 150 255 
-4.14832 11.32864 -26.77616 -0.7071074 0.1475443 -0.6915417 150 150 150 255 
4.14832 -30.06944 22.73224 1 0 0 150 150 150 255 
4.14824 27.28984 22.73224 1 1.451391e-06 -8.746306e-07 150 150 150 255 
4.14832 -0.07944 25.91896 1 0 0 150 150 150 255 
4.14832 11.17008 25.992 1 4.354173e-06 -2.623892e-06 150 150 150 255 
-4.14832 -30.06944 22.73224 -1 0 0 150 150 150 255 
-4.14824 27.28984 22.73224 -1 2.902782e-06 -1.74926e-06 150 150 150 255 
-4.14832 -0.07944 25.91896 -1 0 0 150 150 150 255 
-4.14832 11.17008 25.992 -1 4.354173e-06 -2.623891e-06 150 150 150 255 
4.14832 -30.06944 -22.73224 1 0 0 150 150 150 255 
4.14824 27.28984 -22.73224 1 2.902782e-06 1.74926e-06 150 150 150 255 
4.14832 -0.07944 -25.91896 1 0 0 150 150 150 255 
4.14832 11.17008 -25.992 1 4.354173e-06 2.623891e-06 150 150 150 255 
-4.14832 -30.06944 -22.73224 -1 0 0 150 150 150 255 
-4.14824 27.28984 -22.73224 -1 1.451391e-06 8.746306e-07 150 150 150 255 
-4.14832 -0.07944 -25.91896 -1 0 0 150 150 150 255 
-4.14832 11.17008 -25.992 -1 4.354173e-06 2.623892e-06 150 150 150 255 
32.4432 -24.18528 14.54584 0.574206 0.1863197 -0.797228 150 150 150 255 
30.41592 -19.21952 16.57312 0.1172793 0.9330627 -0.3400581 150 150 150 255 
26.36144 -19.21952 20.6276 -0.5684252 0.7465218 0.3458294 150 150 150 255 
24.33416 -24.18528 22.65488 -0.7970212 -0.1866296 0.5743925 150 150 150 255 
26.36144 -29.15096 20.6276 -0.3398853 -0.9331293 0.1172511 150 150 150 255 
30.41592 -29.15096 16.57312 0.345821 -0.7465053 -0.5684521 150 150 150 255 
37.62928 -24.18528 18.28336 0.5959923 -0.1349008 -0.7915775 150 150 150 255 
35.24976 -18.3324 20.67272 0.5935807 0.6992647 -0.3983603 150 150 150 255 
30.46104 -18.3324 25.45152 -0.1498089 0.9254056 0.3481117 150 150 150 255 
28.07168 -24.18528 27.84096 -0.7360402 0.1339479 0.6635533 150 150 150 255 
30.46104 -30.03808 25.45152 -0.7774224 -0.6181865 0.1160173 150 150 150 255 
35.23984 -30.03808 20.67272 -0.1128663 -0.7099169 -0.6951828 150 150 150 255 
41.722 -33.99464 34.31576 0.5616262 0.08177166 0.8233405 150 150 150 255 
39.33688 -32.16728 27.66984 0.9288796 0.2911474 0.2289454 150 150 150 255 
40.56608 -34.65016 25.8608 0.9005151 -0.3027048 -0.3121575 150 150 150 255 
36.8784 -32.16728 30.12832 0.3692087 0.2399101 0.8978464 150 150 150 255 
35.64912 -34.65016 30.77776 -0.3169027 -0.2246806 0.9214616 150 150 150 255 
36.8784 -36.68776 29.54856 -0.2868901 -0.8511961 0.4394989 150 150 150 255 
39.33688 -36.68776 27.09008 0.3075022 -0.9275376 -0.2124064 150 150 150 255 
39.92592 -21.27736 25.9616 0.761833 0.6263316 0.1652855 150 150 150 255 
35.6228 -21.2732 30.24544 0.1037934 0.4602647 0.8816935 150 150 150 255 
31.8 -31.30376 30.26952 -0.5245273 -0.1836677 0.8313467 150 150 150 255 
32.9524 -36.39184 27.29304 -0.6015269 -0.7985745 0.02107879 150 150 150 255 
37.08136 -36.39184 23.16408 0.200502 -0.7325095 -0.6505604 150 150 150 255 
40.686 -26.5936 27.67976 0.8672028 0.06068081 0.4942442 150 150 150 255 
40.05792 -31.30376 22.01168 0.8788387 -0.1121201 -0.4637583 150 150 150 255 
36.92968 -26.59568 31.42816 0.3031306 0.05442064 0.9513939 150 150 150 255 
41.49296 -35.65416 29.24616 0.9765492 -0.03827755 -0.2118644 150 150 150 255 
40.87832 -34.41272 30.15064 0.5594187 0.8215195 0.1102569 150 150 150 255 
39.64912 -34.41272 31.37984 -0.1762505 0.7246497 0.6661972 150 150 150 255 
39.03448 -35.65416 31.70464 -0.4763336 -0.2616394 0.839435 150 150 150 255 
39.64912 -36.67304 31.09 -0.06019124 -0.911783 0.4062374 150 150 150 255 
40.87832 -36.67304 29.86072 0.5602636 -0.8271721 0.04348821 150 150 150 255 
-32.4432 -24.18528 14.54584 -0.574206 0.1863197 -0.797228 150 150 150 255 
-30.41592 -19.21952 16.57312 -0.1172793 0.9330627 -0.3400581 150 150 150 255 
-35.24976 -18.3324 20.67272 -0.5935807 0.6992647 -0.3983603 150 150 150 255 
-37.62928 -24.18528 18.28336 -0.5959923 -0.1349008 -0.7915775 150 150 150 255 
-26.36144 -19.21952 20.6276 0.5684252 0.7465218 0.3458294 150 150 150 255 
-30.46104 -18.3324 25.45152 0.1498089 0.9254056 0.3481117 150 150 150 255 
-24.33416 -24.18528 22.65488 0.7970212 -0.1866296 0.5743925 150 150 150 255 
-28.07168 -24.18528 27.84096 0.7360402 0.1339479 0.6635533 150 150 150 255 
-26.36144 -29.15096 20.6276 0.3398853 -0.9331293 0.1172511 150 150 150 255 
-30.46104 -30.03808 25.45152 0.7774224 -0.6181865 0.1160173 150 150 150 255 
-30.41592 -29.15096 16.57312 -0.345821 -0.7465053 -0.5684521 150 150 150 255 
-35.23984 -30.03808 20.67272 0.1128663 -0.7099169 -0.6951828 150 150 150 255 
-39.92592 -21.27736 25.9616 -0.761833 0.6263316 0.1652855 150 150 150 255 
-40.05792 -31.30376 22.01168 -0.8788387 -0.1121201 -0.4637583 150 150 150 255 
-35.6228 -21.2732 30.24544 -0.1037934 0.4602647 0.8816935 150 150 150 255 
-31.8 -31.30376 30.26952 0.5245273 -0.1836677 0.8313467 150 150 150 255 
-32.9524 -36.39184 27.29304 0.6015269 -0.7985745 0.02107879 150 150 150 255 
-37.08136 -36.39184 23.16408 -0.200502 -0.7325095 -0.6505604 150 150 150 255 
-39.33688 -32.16728 27.66984 -0.9288796 0.2911474 0.2289454 150 150 150 255 
-40.87832 -34.41272 30.15064 -0.5594187 0.8215195 0.1102569 150 150 150 255 
-41.49296 -35.65416 29.24616 -0.9765492 -0.03827755 -0.2118644 150 150 150 255 
-40.56608 -34.65016 25.8608 -0.9005151 -0.3027048 -0.3121575 150 150 150 255 
-36.8784 -32.16728 30.12832 -0.3692087 0.2399101 0.8978464 150 150 150 255 
-39.64912 -34.41272 31.37984 0.1762505 0.7246497 0.6661972 150 150 150 255 
-35.64912 -34.65016 30.77776 0.3169027 -0.2246806 0.9214616 150 150 150 255 
-39.03448 -35.65416 31.70464 0.4763336 -0.2616394 0.839435 150 150 150 255 
-36.8784 -36.68776 29.54856 0.2868901 -0.8511961 0.4394989 150 150 150 255 
-39.64912 -36.67304 31.09 0.06019124 -0.911783 0.4062374 150 150 150 255 
-39.33688 -36.68776 27.09008 -0.3075022 -0.9275376 -0.2124064 150 150 150 255 
-40.87832 -36.67304 29.86072 -0.5602636 -0.8271721 0.04348821 150 150 150 255 
-40.686 -26.5936 27.67976 -0.8672028 0.06068081 0.4942442 150 150 150 255 
-36.92968 -26.59568 31.42816 -0.3031306 0.05442064 0.9513939 150 150 150 255 
-41.722 -33.99464 34.31576 -0.5616262 0.08177166 0.8233405 150 150 150 255 
32.4432 -24.18528 -14.54584 0.574206 0.1863197 0.797228 150 150 150 255 
30.41592 -19.21952 -16.57312 0.1172793 0.9330627 0.3400581 150 150 150 255 
35.24976 -18.3324 -20.67272 0.5935807 0.6992647 0.3983603 150 150 150 255 
37.62928 -24.18528 -18.28336 0.5959923 -0.1349008 0.7915775 150 150 150 255 
26.36144 -19.21952 -20.6276 -0.5684252 0.7465218 -0.3458294 150 150 150 255 
30.46104 -18.3324 -25.45152 -0.1498089 0.9254056 -0.3481117 150 150 150 255 
24.33416 -24.18528 -22.65488 -0.7970212 -0.1866296 -0.5743925 150 150 150 255 
28.07168 -24.18528 -27.84096 -0.7360402 0.1339479 -0.6635533 150 150 150 255 
26.36144 -29.15096 -20.6276 -0.3398853 -0.9331293 -0.1172511 150 150 150 255 
30.46104 -30.03808 -25.45152 -0.7774224 -0.6181865 -0.1160173 150 150 150 255 
30.41592 -29.15096 -16.57312 0.345821 -0.7465053 0.5684521 150 150 150 255 
35.23984 -30.03808 -20.67272 -0.1128663 -0.7099169 0.6951828 150 150 150 255 
39.92592 -21.27736 -25.9616 0.761833 0.6263316 -0.1652855 150 150 150 255 
40.05792 -31.30376 -22.01168 0.8788387 -0.1121201 0.4637583 150 150 150 255 
35.6228 -21.2732 -30.24544 0.1037934 0.4602647 -0.8816935 150 150 150 255 
31.8 -31.30376 -30.26952 -0.5245273 -0.1836677 -0.8313467 150 150 150 255 
32.9524 -36.39184 -27.29304 -0.6015269 -0.7985745 -0.02107879 150 150 150 255 
37.08136 -36.39184 -23.16408 0.200502 -0.7325095 0.6505604 150 150 150 255 
39.33688 -32.16728 -27.66984 0.9288796 0.2911474 -0.2289454 150 150 150 255 
40.87832 -34.41272 -30.15064 0.5594187 0.8215195 -0.1102569 150 150 150 255 
41.49296 -35.65416 -29.24616 0.9765492 -0.03827755 0.2118644 150 150 150 255 
40.56608 -34.65016 -25.8608 0.9005151 -0.3027048 0.3121575 150 150 150 255 
36.8784 -32.16728 -30.12832 0.3692087 0.2399101 -0.8978464 150 150 150 255 
39.64912 -34.41272 -31.37984 -0.1762505 0.7246497 -0.6661972 150 150 150 255 
35.64912 -34.65016 -30.77776 -0.3169027 -0.2246806 -0.9214616 150 150 150 255 
39.03448 -35.65416 -31.70464 -0.4763336 -0.2616394 -0.839435 150 150 150 255 
36.8784 -36.68776 -29.54856 -0.2868901 -0.8511961 -0.4394989 150 150 150 255 
39.64912 -36.67304 -31.09 -0.06019124 -0.911783 -0.4062374 150 150 150 255 
39.33688 -36.68776 -27.09008 0.3075022 -0.9275376 0.2124064 150 150 150 255 
40.87832 -36.67304 -29.86072 0.5602636 -0.8271721 -0.04348821 150 150 150 255 
40.686 -26.5936 -27.67976 0.8672028 0.06068081 -0.4942442 150 150 150 255 
36.92968 -26.59568 -31.42816 0.3031306 0.05442064 -0.9513939 150 150 150 255 
41.722 -33.99464 -34.31576 0.5616262 0.08177166 -0.8233405 150 150 150 255 
-32.4432 -24.18528 -14.54584 -0.574206 0.1863197 0.797228 150 150 150 255 
-37.62928 -24.18528 -18.28336 -0.5959923 -0.1349008 0.7915775 150 150 150 255 
-35.24976 -18.3324 -20.67272 -0.5935807 0.6992647 0.3983603 150 150 150 255 
-30.41592 -19.21952 -16.57312 -0.1172793 0.9330627 0.3400581 150 150 150 255 
-30.46104 -18.3324 -25.45152 0.1498089 0.9254056 -0.3481117 150 150 150 255 
-26.36144 -19.21952 -20.6276 0.5684252 0.7465218 -0.3458294 150 150 150 255 
-28.07168 -24.18528 -27.84096 0.7360402 0.1339479 -0.6635533 150 150 150 255 
-24.33416 -24.18528 -22.65488 0.7970212 -0.1866296 -0.5743925 150 150 150 255 
-30.46104 -30.03808 -25.45152 0.7774224 -0.6181865 -0.1160173 150 150 150 255 
-26.36144 -29.15096 -20.6276 0.3398853 -0.9331293 -0.1172511 150 150 150 255 
-35.23984 -30.03808 -20.67272 0.1128663 -0.7099169 0.6951828 150 150 150 255 
-30.41592 -29.15096 -16.57312 -0.345821 -0.7465053 0.5684521 150 150 150 255 
-40.05792 -31.30376 -22.01168 -0.8788387 -0.1121201 0.4637583 150 150 150 255 
-39.92592 -21.27736 -25.9616 -0.761833 0.6263316 -0.1652855 150 150 150 255 
-35.6228 -21.2732 -30.24544 -0.1037934 0.4602647 -0.8816935 150 150 150 255 
-31.8 -31.30376 -30.26952 0.5245273 -0.1836677 -0.8313467 150 150 150 255 
-32.9524 -36.39184 -27.29304 0.6015269 -0.7985745 -0.02107879 150 150 150 255 
-37.08136 -36.39184 -23.16408 -0.200502 -0.7325095 0.6505604 150 150 150 255 
-39.33688 -32.16728 -27.66984 -0.9288796 0.2911474 -0.2289454 150 150 150 255 
-40.56608 -34.65016 -25.8608 -0.9005151 -0.3027048 0.3121575 150 150 150 255 
-41.49296 -35.65416 -29.24616 -0.9765492 -0.03827755 0.2118644 150 150 150 255 
-40.87832 -34.41272 -30.15064 -0.5594187 0.8215195 -0.1102569 150 150 150 255 
-36.8784 -32.16728 -30.12832 -0.3692087 0.2399101 -0.8978464 150 150 150 255 
-39.64912 -34.41272 -31.37984 0.1762505 0.7246497 -0.6661972 150 150 150 255 
-35.64912 -34.65016 -30.77776 0.3169027 -0.2246806 -0.9214616 150 150 150 255 
-39.03448 -35.65416 -31.70464 0.4763336 -0.2616394 -0.839435 150 150 150 255 
-36.8784 -36.68776 -29.54856 0.2868901 -0.8511961 -0.4394989 150 150 150 255 
-39.64912 -36.67304 -31.09 0.06019124 -0.911783 -0.4062374 150 150 150 255 
-39.33688 -36.68776 -27.09008 -0.3075022 -0.9275376 0.2124064 150 150 150 255 
-40.87832 -36.67304 -29.86072 -0.5602636 -0.8271721 -0.04348821 150 150 150 255 
-40.686 -26.5936 -27.67976 -0.8672028 0.06068081 -0.4942442 150 150 150 255 
-36.92968 -26.59568 -31.42816 -0.3031306 0.05442064 -0.9513939 150 150 150 255 
-41.722 -33.99464 -34.31576 -0.5616262 0.08177166 -0.8233405 150 150 150 255 
3 2 1 0 
3 2 0 35 
3 4 71 3 
3 4 3 14 
3 72 3 71 
3 36 0 1 
3 36 1 12 
3 6 76 37 
3 6 37 5 
3 25 12 1 
3 25 1 2 
3 6 5 26 
3 6 26 27 
3 76 6 10 
3 76 10 81 
3 10 6 27 
3 10 27 11 
3 37 7 8 
3 37 8 5 
3 8 9 26 
3 8 26 5 
3 81 13 3 
3 81 3 72 
3 10 13 81 
3 10 11 14 
3 10 14 13 
3 7 36 12 
3 7 12 8 
3 12 25 9 
3 12 9 8 
3 16 15 3 
3 16 3 13 
3 17 16 13 
3 17 13 14 
3 15 17 14 
3 15 14 3 
3 15 16 18 
3 16 17 18 
3 17 15 18 
3 11 4 14 
3 2 35 90 
3 2 90 19 
3 20 71 4 
3 20 4 21 
3 38 71 20 
3 94 22 19 
3 94 19 90 
3 24 23 39 
3 24 39 40 
3 25 2 19 
3 25 19 22 
3 24 27 26 
3 24 26 23 
3 40 41 28 
3 40 28 24 
3 28 11 27 
3 28 27 24 
3 39 23 29 
3 39 29 100 
3 29 23 26 
3 29 26 9 
3 20 30 41 
3 20 41 38 
3 28 41 30 
3 28 30 21 
3 28 21 11 
3 100 29 22 
3 100 22 94 
3 22 29 9 
3 22 9 25 
3 31 30 20 
3 31 20 32 
3 33 21 30 
3 33 30 31 
3 32 20 21 
3 32 21 33 
3 32 34 31 
3 31 34 33 
3 33 34 32 
3 11 21 4 
3 56 62 63 
3 56 63 43 
3 110 44 45 
3 110 45 57 
3 58 64 111 
3 58 111 42 
3 53 64 58 
3 53 58 60 
3 48 47 56 
3 48 56 43 
3 51 47 48 
3 51 48 52 
3 49 54 121 
3 59 50 55 
3 59 55 61 
3 121 53 60 
3 121 60 49 
3 51 52 50 
3 51 50 59 
3 55 46 57 
3 55 57 61 
3 44 121 54 
3 44 54 45 
3 47 58 42 
3 47 42 56 
3 51 60 58 
3 51 58 47 
3 61 54 49 
3 61 49 59 
3 59 49 60 
3 59 60 51 
3 54 61 57 
3 54 57 45 
3 65 110 57 
3 65 57 46 
3 62 56 42 
3 62 42 111 
3 66 35 0 
3 66 0 67 
3 70 69 68 
3 70 68 71 
3 72 71 68 
3 36 73 67 
3 36 67 0 
3 75 74 37 
3 75 37 76 
3 77 66 67 
3 77 67 73 
3 75 79 78 
3 75 78 74 
3 76 81 80 
3 76 80 75 
3 80 82 79 
3 80 79 75 
3 37 74 83 
3 37 83 7 
3 83 74 78 
3 83 78 84 
3 81 72 68 
3 81 68 85 
3 80 81 85 
3 80 85 69 
3 80 69 82 
3 7 83 73 
3 7 73 36 
3 73 83 84 
3 73 84 77 
3 86 85 68 
3 86 68 87 
3 88 69 85 
3 88 85 86 
3 87 68 69 
3 87 69 88 
3 87 89 86 
3 86 89 88 
3 88 89 87 
3 82 69 70 
3 66 91 90 
3 66 90 35 
3 93 92 70 
3 93 70 71 
3 38 93 71 
3 94 90 91 
3 94 91 95 
3 96 40 39 
3 96 39 97 
3 77 95 91 
3 77 91 66 
3 96 97 78 
3 96 78 79 
3 40 96 98 
3 40 98 41 
3 98 96 79 
3 98 79 82 
3 39 100 99 
3 39 99 97 
3 99 84 78 
3 99 78 97 
3 93 38 41 
3 93 41 101 
3 98 101 41 
3 98 82 92 
3 98 92 101 
3 100 94 95 
3 100 95 99 
3 95 77 84 
3 95 84 99 
3 103 102 93 
3 103 93 101 
3 104 103 101 
3 104 101 92 
3 102 104 92 
3 102 92 93 
3 102 103 105 
3 103 104 105 
3 104 102 105 
3 82 70 92 
3 107 106 63 
3 107 63 62 
3 110 109 108 
3 110 108 44 
3 113 112 111 
3 113 111 64 
3 53 114 113 
3 53 113 64 
3 115 106 107 
3 115 107 116 
3 118 117 115 
3 118 115 116 
3 119 121 120 
3 124 123 122 
3 124 122 125 
3 121 119 114 
3 121 114 53 
3 118 124 125 
3 118 125 117 
3 122 123 109 
3 122 109 126 
3 44 108 120 
3 44 120 121 
3 116 107 112 
3 116 112 113 
3 118 116 113 
3 118 113 114 
3 123 124 119 
3 123 119 120 
3 124 118 114 
3 124 114 119 
3 120 108 109 
3 120 109 123 
3 65 126 109 
3 65 109 110 
3 62 111 112 
3 62 112 107 
3 127 129 133 
3 127 133 131 
3 132 134 130 
3 132 130 128 
3 127 131 139 
3 127 139 135 
3 141 137 135 
3 141 135 139 
3 132 128 136 
3 132 136 140 
3 140 136 138 
3 140 138 142 
3 129 127 143 
3 129 143 145 
3 131 133 149 
3 131 149 147 
3 134 132 148 
3 134 148 150 
3 128 130 146 
3 128 146 144 
3 139 131 147 
3 139 147 155 
3 127 135 151 
3 127 151 143 
3 135 137 153 
3 135 153 151 
3 141 139 155 
3 141 155 157 
3 136 128 144 
3 136 144 152 
3 132 140 156 
3 132 156 148 
3 138 136 152 
3 138 152 154 
3 140 142 158 
3 140 158 156 
3 166 165 159 
3 166 159 160 
3 167 166 160 
3 167 160 161 
3 168 167 161 
3 168 161 162 
3 169 168 162 
3 169 162 163 
3 170 169 163 
3 170 163 164 
3 165 170 164 
3 165 164 159 
3 184 165 166 
3 184 166 178 
3 178 166 167 
3 178 167 179 
3 179 167 168 
3 179 168 180 
3 180 168 169 
3 180 169 181 
3 181 169 170 
3 181 170 182 
3 184 182 170 
3 184 170 165 
3 186 173 172 
3 186 172 187 
3 187 172 174 
3 187 174 188 
3 188 174 175 
3 188 175 189 
3 189 175 176 
3 189 176 190 
3 190 176 177 
3 190 177 191 
3 186 191 177 
3 186 177 173 
3 172 173 184 
3 172 184 183 
3 183 185 174 
3 183 174 172 
3 174 185 180 
3 174 180 175 
3 175 180 181 
3 175 181 176 
3 181 182 177 
3 181 177 176 
3 182 184 173 
3 182 173 177 
3 178 183 184 
3 179 180 185 
3 183 178 179 
3 183 179 185 
3 187 171 186 
3 188 171 187 
3 189 171 188 
3 190 171 189 
3 191 171 190 
3 186 171 191 
3 194 193 192 
3 194 192 195 
3 197 196 193 
3 197 193 194 
3 199 198 196 
3 199 196 197 
3 201 200 198 
3 201 198 199 
3 203 202 200 
3 203 200 201 
3 195 192 202 
3 195 202 203 
3 205 204 194 
3 205 194 195 
3 204 206 197 
3 204 197 194 
3 206 207 199 
3 206 199 197 
3 207 208 201 
3 207 201 199 
3 208 209 203 
3 208 203 201 
3 205 195 203 
3 205 203 209 
3 212 211 210 
3 212 210 213 
3 211 215 214 
3 211 214 210 
3 215 217 216 
3 215 216 214 
3 217 219 218 
3 217 218 216 
3 219 221 220 
3 219 220 218 
3 212 213 220 
3 212 220 221 
3 210 222 205 
3 210 205 213 
3 222 210 214 
3 222 214 223 
3 214 216 207 
3 214 207 223 
3 216 218 208 
3 216 208 207 
3 208 218 220 
3 208 220 209 
3 209 220 213 
3 209 213 205 
3 204 205 222 
3 206 223 207 
3 222 223 206 
3 222 206 204 
3 211 212 224 
3 215 211 224 
3 217 215 224 
3 219 217 224 
3 221 219 224 
3 212 221 224 
3 227 226 225 
3 227 225 228 
3 230 229 226 
3 230 226 227 
3 232 231 229 
3 232 229 230 
3 234 233 231 
3 234 231 232 
3 236 235 233 
3 236 233 234 
3 228 225 235 
3 228 235 236 
3 238 237 227 
3 238 227 228 
3 237 239 230 
3 237 230 227 
3 239 240 232 
3 239 232 230 
3 240 241 234 
3 240 234 232 
3 241 242 236 
3 241 236 234 
3 238 228 236 
3 238 236 242 
3 245 244 243 
3 245 243 246 
3 244 248 247 
3 244 247 243 
3 248 250 249 
3 248 249 247 
3 250 252 251 
3 250 251 249 
3 252 254 253 
3 252 253 251 
3 245 246 253 
3 245 253 254 
3 243 255 238 
3 243 238 246 
3 255 243 247 
3 255 247 256 
3 247 249 240 
3 247 240 256 
3 249 251 241 
3 249 241 240 
3 241 251 253 
3 241 253 242 
3 242 253 246 
3 242 246 238 
3 237 238 255 
3 239 256 240 
3 255 256 239 
3 255 239 237 
3 244 245 257 
3 248 244 257 
3 250 248 257 
3 252 250 257 
3 254 252 257 
3 245 254 257 
3 260 259 258 
3 260 258 261 
3 262 260 261 
3 262 261 263 
3 264 262 263 
3 264 263 265 
3 266 264 265 
3 266 265 267 
3 268 266 267 
3 268 267 269 
3 259 268 269 
3 259 269 258 
3 270 259 260 
3 270 260 271 
3 271 260 262 
3 271 262 272 
3 272 262 264 
3 272 264 273 
3 273 264 266 
3 273 266 274 
3 274 266 268 
3 274 268 275 
3 270 275 268 
3 270 268 259 
3 278 277 276 
3 278 276 279 
3 279 276 280 
3 279 280 281 
3 281 280 282 
3 281 282 283 
3 283 282 284 
3 283 284 285 
3 285 284 286 
3 285 286 287 
3 278 287 286 
3 278 286 277 
3 276 277 270 
3 276 270 288 
3 288 289 280 
3 288 280 276 
3 280 289 273 
3 280 273 282 
3 282 273 274 
3 282 274 284 
3 274 275 286 
3 274 286 284 
3 275 270 277 
3 275 277 286 
3 271 288 270 
3 272 273 289 
3 288 271 272 
3 288 272 289 
3 279 290 278 
3 281 290 279 
3 283 290 281 
3 285 290 283 
3 287 290 285 
3 278 290 287 
